<svg width="91" height="91" viewBox="0 0 91 91" fill="none" xmlns="http://www.w3.org/2000/svg">
<circle cx="45.5" cy="45.5" r="44" stroke="#46B9EA" stroke-width="3" stroke-dasharray="6 6"/>
<circle cx="45" cy="45" r="40" fill="#E2F2FC"/>
<path d="M43.9688 45.5811C43.9688 48.2314 43.7591 50.5973 43.3398 52.6787C42.9355 54.7601 42.2767 56.527 41.3633 57.9795C40.4648 59.432 39.2819 60.54 37.8145 61.3037C36.347 62.0674 34.5651 62.4492 32.4688 62.4492C29.8333 62.4492 27.6696 61.7829 25.9775 60.4502C24.2855 59.1025 23.0352 57.1709 22.2266 54.6553C21.418 52.1247 21.0137 49.0999 21.0137 45.5811C21.0137 42.0322 21.3805 39 22.1143 36.4844C22.863 33.9538 24.0758 32.0146 25.7529 30.667C27.43 29.3193 29.6686 28.6455 32.4688 28.6455C35.0892 28.6455 37.2454 29.3193 38.9375 30.667C40.6445 31.9997 41.9098 33.9313 42.7334 36.4619C43.557 38.9775 43.9688 42.0173 43.9688 45.5811ZM27.9092 45.5811C27.9092 48.0817 28.0439 50.1706 28.3135 51.8477C28.598 53.5098 29.0697 54.7601 29.7285 55.5986C30.3874 56.4372 31.3008 56.8564 32.4688 56.8564C33.6217 56.8564 34.5277 56.4447 35.1865 55.6211C35.8604 54.7826 36.3395 53.5322 36.624 51.8701C36.9085 50.193 37.0508 48.0967 37.0508 45.5811C37.0508 43.0804 36.9085 40.9915 36.624 39.3145C36.3395 37.6374 35.8604 36.3796 35.1865 35.541C34.5277 34.6875 33.6217 34.2607 32.4688 34.2607C31.3008 34.2607 30.3874 34.6875 29.7285 35.541C29.0697 36.3796 28.598 37.6374 28.3135 39.3145C28.0439 40.9915 27.9092 43.0804 27.9092 45.5811ZM70.4727 62H47.5176V57.1709L55.7607 48.8379C57.4229 47.1309 58.7555 45.7083 59.7588 44.5703C60.777 43.4173 61.5107 42.3691 61.96 41.4258C62.4242 40.4824 62.6562 39.4717 62.6562 38.3936C62.6562 37.0908 62.2894 36.1175 61.5557 35.4736C60.8369 34.8148 59.8711 34.4854 58.6582 34.4854C57.3854 34.4854 56.1501 34.7773 54.9521 35.3613C53.7542 35.9453 52.5039 36.7764 51.2012 37.8545L47.4277 33.3848C48.3711 32.5762 49.3669 31.8125 50.415 31.0938C51.4782 30.375 52.7061 29.7985 54.0986 29.3643C55.5062 28.915 57.1908 28.6904 59.1523 28.6904C61.3086 28.6904 63.1579 29.0798 64.7002 29.8584C66.2575 30.637 67.4554 31.7002 68.2939 33.0479C69.1325 34.3805 69.5518 35.8929 69.5518 37.585C69.5518 39.3968 69.1924 41.0514 68.4736 42.5488C67.7549 44.0462 66.7067 45.5286 65.3291 46.9961C63.9665 48.4635 62.3193 50.0882 60.3877 51.8701L56.165 55.8457V56.1602H70.4727V62Z" fill="#29AAE1"/>
</svg>
