<svg width="91" height="91" viewBox="0 0 91 91" fill="none" xmlns="http://www.w3.org/2000/svg">
<circle cx="45.5" cy="45.5" r="44" stroke="#46B9EA" stroke-width="3" stroke-dasharray="6 6"/>
<circle cx="45" cy="45" r="40" fill="#E2F2FC"/>
<path d="M43.9688 45.5811C43.9688 48.2314 43.7591 50.5973 43.3398 52.6787C42.9355 54.7601 42.2767 56.527 41.3633 57.9795C40.4648 59.432 39.2819 60.54 37.8145 61.3037C36.347 62.0674 34.5651 62.4492 32.4688 62.4492C29.8333 62.4492 27.6696 61.7829 25.9775 60.4502C24.2855 59.1025 23.0352 57.1709 22.2266 54.6553C21.418 52.1247 21.0137 49.0999 21.0137 45.5811C21.0137 42.0322 21.3805 39 22.1143 36.4844C22.863 33.9538 24.0758 32.0146 25.7529 30.667C27.43 29.3193 29.6686 28.6455 32.4688 28.6455C35.0892 28.6455 37.2454 29.3193 38.9375 30.667C40.6445 31.9997 41.9098 33.9313 42.7334 36.4619C43.557 38.9775 43.9688 42.0173 43.9688 45.5811ZM27.9092 45.5811C27.9092 48.0817 28.0439 50.1706 28.3135 51.8477C28.598 53.5098 29.0697 54.7601 29.7285 55.5986C30.3874 56.4372 31.3008 56.8564 32.4688 56.8564C33.6217 56.8564 34.5277 56.4447 35.1865 55.6211C35.8604 54.7826 36.3395 53.5322 36.624 51.8701C36.9085 50.193 37.0508 48.0967 37.0508 45.5811C37.0508 43.0804 36.9085 40.9915 36.624 39.3145C36.3395 37.6374 35.8604 36.3796 35.1865 35.541C34.5277 34.6875 33.6217 34.2607 32.4688 34.2607C31.3008 34.2607 30.3874 34.6875 29.7285 35.541C29.0697 36.3796 28.598 37.6374 28.3135 39.3145C28.0439 40.9915 27.9092 43.0804 27.9092 45.5811ZM64.6777 62H57.7373V42.998C57.7373 42.474 57.7448 41.8301 57.7598 41.0664C57.7747 40.2878 57.7972 39.4941 57.8271 38.6855C57.8571 37.862 57.887 37.1208 57.917 36.4619C57.7523 36.6566 57.4154 36.9935 56.9062 37.4727C56.4121 37.9368 55.9479 38.3561 55.5137 38.7305L51.7402 41.7627L48.3936 37.585L58.9727 29.1621H64.6777V62Z" fill="#29AAE1"/>
</svg>
