<svg width="91" height="92" viewBox="0 0 91 92" fill="none" xmlns="http://www.w3.org/2000/svg">
<circle cx="45.5" cy="45.8333" r="44" stroke="#46B9EA" stroke-width="3" stroke-dasharray="6 6"/>
<circle cx="45" cy="45.3333" r="40" fill="#E2F2FC"/>
<path d="M43.9688 45.9143C43.9688 48.5647 43.7591 50.9306 43.3398 53.012C42.9355 55.0933 42.2767 56.8603 41.3633 58.3127C40.4648 59.7652 39.2819 60.8733 37.8145 61.637C36.347 62.4006 34.5651 62.7825 32.4688 62.7825C29.8333 62.7825 27.6696 62.1161 25.9775 60.7834C24.2855 59.4358 23.0352 57.5042 22.2266 54.9885C21.418 52.4579 21.0137 49.4332 21.0137 45.9143C21.0137 42.3655 21.3805 39.3333 22.1143 36.8176C22.863 34.287 24.0758 32.3479 25.7529 31.0002C27.43 29.6526 29.6686 28.9788 32.4688 28.9788C35.0892 28.9788 37.2454 29.6526 38.9375 31.0002C40.6445 32.3329 41.9098 34.2646 42.7334 36.7952C43.557 39.3108 43.9688 42.3505 43.9688 45.9143ZM27.9092 45.9143C27.9092 48.415 28.0439 50.5038 28.3135 52.1809C28.598 53.843 29.0697 55.0933 29.7285 55.9319C30.3874 56.7704 31.3008 57.1897 32.4688 57.1897C33.6217 57.1897 34.5277 56.7779 35.1865 55.9543C35.8604 55.1158 36.3395 53.8655 36.624 52.2034C36.9085 50.5263 37.0508 48.4299 37.0508 45.9143C37.0508 43.4137 36.9085 41.3248 36.624 39.6477C36.3395 37.9706 35.8604 36.7128 35.1865 35.8743C34.5277 35.0208 33.6217 34.594 32.4688 34.594C31.3008 34.594 30.3874 35.0208 29.7285 35.8743C29.0697 36.7128 28.598 37.9706 28.3135 39.6477C28.0439 41.3248 27.9092 43.4137 27.9092 45.9143ZM69.1924 36.8401C69.1924 38.3525 68.8779 39.6627 68.249 40.7708C67.6201 41.8788 66.7666 42.7847 65.6885 43.4885C64.6253 44.1923 63.4274 44.7089 62.0947 45.0383V45.1731C64.7301 45.5025 66.7292 46.3111 68.0918 47.5989C69.4694 48.8866 70.1582 50.6086 70.1582 52.7649C70.1582 54.6816 69.6865 56.3961 68.7432 57.9084C67.8148 59.4208 66.3773 60.6112 64.4307 61.4797C62.484 62.3482 59.9759 62.7825 56.9062 62.7825C55.0944 62.7825 53.4023 62.6327 51.8301 62.3333C50.2728 62.0487 48.8053 61.607 47.4277 61.0081V55.1008C48.8353 55.8196 50.3102 56.3661 51.8525 56.7405C53.3949 57.0999 54.8324 57.2795 56.165 57.2795C58.6507 57.2795 60.3877 56.8528 61.376 55.9993C62.3792 55.1308 62.8809 53.9179 62.8809 52.3606C62.8809 51.4472 62.6488 50.676 62.1846 50.0471C61.7204 49.4182 60.9118 48.939 59.7588 48.6096C58.6208 48.2802 57.026 48.1155 54.9746 48.1155H52.4814V42.7922H55.0195C57.041 42.7922 58.5758 42.6051 59.624 42.2307C60.6872 41.8414 61.4059 41.3173 61.7803 40.6584C62.1696 39.9846 62.3643 39.2209 62.3643 38.3674C62.3643 37.1995 62.0049 36.2861 61.2861 35.6272C60.5674 34.9683 59.3695 34.6389 57.6924 34.6389C56.6442 34.6389 55.6859 34.7737 54.8174 35.0432C53.9639 35.2978 53.1927 35.6122 52.5039 35.9866C51.8151 36.3459 51.2087 36.6978 50.6846 37.0422L47.4727 32.2581C48.7604 31.3297 50.2653 30.5585 51.9873 29.9446C53.7243 29.3306 55.7907 29.0237 58.1865 29.0237C61.5706 29.0237 64.251 29.705 66.2275 31.0676C68.2041 32.4303 69.1924 34.3544 69.1924 36.8401Z" fill="#29AAE1"/>
</svg>
