<svg width="91" height="92" viewBox="0 0 91 92" fill="none" xmlns="http://www.w3.org/2000/svg">
<circle cx="45.5" cy="46.1667" r="44" stroke="#46B9EA" stroke-width="3" stroke-dasharray="6 6"/>
<circle cx="45" cy="45.6667" r="40" fill="#E2F2FC"/>
<path d="M43.9688 46.2478C43.9688 48.8982 43.7591 51.2641 43.3398 53.3455C42.9355 55.4268 42.2767 57.1938 41.3633 58.6462C40.4648 60.0987 39.2819 61.2068 37.8145 61.9705C36.347 62.7341 34.5651 63.116 32.4688 63.116C29.8333 63.116 27.6696 62.4496 25.9775 61.1169C24.2855 59.7693 23.0352 57.8376 22.2266 55.322C21.418 52.7914 21.0137 49.7667 21.0137 46.2478C21.0137 42.699 21.3805 39.6667 22.1143 37.1511C22.863 34.6205 24.0758 32.6814 25.7529 31.3337C27.43 29.9861 29.6686 29.3123 32.4688 29.3123C35.0892 29.3123 37.2454 29.9861 38.9375 31.3337C40.6445 32.6664 41.9098 34.5981 42.7334 37.1287C43.557 39.6443 43.9688 42.684 43.9688 46.2478ZM27.9092 46.2478C27.9092 48.7485 28.0439 50.8373 28.3135 52.5144C28.598 54.1765 29.0697 55.4268 29.7285 56.2654C30.3874 57.1039 31.3008 57.5232 32.4688 57.5232C33.6217 57.5232 34.5277 57.1114 35.1865 56.2878C35.8604 55.4493 36.3395 54.199 36.624 52.5369C36.9085 50.8598 37.0508 48.7634 37.0508 46.2478C37.0508 43.7472 36.9085 41.6583 36.624 39.9812C36.3395 38.3041 35.8604 37.0463 35.1865 36.2078C34.5277 35.3542 33.6217 34.9275 32.4688 34.9275C31.3008 34.9275 30.3874 35.3542 29.7285 36.2078C29.0697 37.0463 28.598 38.3041 28.3135 39.9812C28.0439 41.6583 27.9092 43.7472 27.9092 46.2478ZM47.293 48.7185C47.293 46.8318 47.4277 44.9675 47.6973 43.1257C47.9818 41.269 48.4684 39.5245 49.1572 37.8923C49.846 36.2452 50.8118 34.7927 52.0547 33.5349C53.2975 32.2621 54.8773 31.2664 56.7939 30.5476C58.7106 29.8139 61.0316 29.447 63.7568 29.447C64.4007 29.447 65.1494 29.477 66.0029 29.5369C66.8714 29.5818 67.5902 29.6641 68.1592 29.7839V35.3318C67.5602 35.197 66.9163 35.0922 66.2275 35.0173C65.5537 34.9275 64.8799 34.8826 64.2061 34.8826C61.4808 34.8826 59.3695 35.3168 57.8721 36.1853C56.3896 37.0538 55.3415 38.2592 54.7275 39.8015C54.1286 41.3289 53.7767 43.1108 53.6719 45.1472H53.9639C54.3831 44.4135 54.9072 43.7621 55.5361 43.1931C56.18 42.6241 56.9587 42.1749 57.8721 41.8455C58.7855 41.5011 59.8561 41.3289 61.084 41.3289C63.0007 41.3289 64.6628 41.7406 66.0703 42.5642C67.4779 43.3728 68.5635 44.5483 69.3271 46.0906C70.0908 47.6329 70.4727 49.5121 70.4727 51.7283C70.4727 54.0942 70.016 56.1306 69.1025 57.8376C68.1891 59.5447 66.8939 60.8549 65.2168 61.7683C63.5547 62.6667 61.5781 63.116 59.2871 63.116C57.61 63.116 56.0452 62.8315 54.5928 62.2625C53.1403 61.6785 51.8675 60.795 50.7744 59.6121C49.6813 58.4291 48.8278 56.9392 48.2139 55.1423C47.5999 53.3305 47.293 51.1892 47.293 48.7185ZM59.1523 57.5681C60.515 57.5681 61.623 57.1039 62.4766 56.1755C63.3301 55.2472 63.7568 53.7947 63.7568 51.8181C63.7568 50.2159 63.3825 48.9581 62.6338 48.0447C61.9001 47.1163 60.7845 46.6521 59.2871 46.6521C58.2689 46.6521 57.3704 46.8842 56.5918 47.3484C55.8281 47.7976 55.2367 48.3741 54.8174 49.0779C54.3981 49.7667 54.1885 50.4779 54.1885 51.2117C54.1885 51.9753 54.2933 52.7315 54.5029 53.4802C54.7126 54.2289 55.027 54.9102 55.4463 55.5242C55.8656 56.1381 56.3822 56.6322 56.9961 57.0066C57.625 57.3809 58.3438 57.5681 59.1523 57.5681Z" fill="#29AAE1"/>
</svg>
