<svg width="91" height="92" viewBox="0 0 91 92" fill="none" xmlns="http://www.w3.org/2000/svg">
<circle cx="45.5" cy="46.1667" r="44" stroke="#46B9EA" stroke-width="3" stroke-dasharray="6 6"/>
<circle cx="45" cy="45.6667" r="40" fill="#E2F2FC"/>
<path d="M43.9688 46.2478C43.9688 48.8982 43.7591 51.2641 43.3398 53.3455C42.9355 55.4268 42.2767 57.1938 41.3633 58.6462C40.4648 60.0987 39.2819 61.2068 37.8145 61.9705C36.347 62.7341 34.5651 63.116 32.4688 63.116C29.8333 63.116 27.6696 62.4496 25.9775 61.1169C24.2855 59.7693 23.0352 57.8376 22.2266 55.322C21.418 52.7914 21.0137 49.7667 21.0137 46.2478C21.0137 42.699 21.3805 39.6667 22.1143 37.1511C22.863 34.6205 24.0758 32.6814 25.7529 31.3337C27.43 29.9861 29.6686 29.3123 32.4688 29.3123C35.0892 29.3123 37.2454 29.9861 38.9375 31.3337C40.6445 32.6664 41.9098 34.5981 42.7334 37.1287C43.557 39.6443 43.9688 42.684 43.9688 46.2478ZM27.9092 46.2478C27.9092 48.7485 28.0439 50.8373 28.3135 52.5144C28.598 54.1765 29.0697 55.4268 29.7285 56.2654C30.3874 57.1039 31.3008 57.5232 32.4688 57.5232C33.6217 57.5232 34.5277 57.1114 35.1865 56.2878C35.8604 55.4493 36.3395 54.199 36.624 52.5369C36.9085 50.8598 37.0508 48.7634 37.0508 46.2478C37.0508 43.7472 36.9085 41.6583 36.624 39.9812C36.3395 38.3041 35.8604 37.0463 35.1865 36.2078C34.5277 35.3542 33.6217 34.9275 32.4688 34.9275C31.3008 34.9275 30.3874 35.3542 29.7285 36.2078C29.0697 37.0463 28.598 38.3041 28.3135 39.9812C28.0439 41.6583 27.9092 43.7472 27.9092 46.2478ZM59.4668 41.6882C61.4733 41.6882 63.2552 42.0701 64.8125 42.8337C66.3848 43.5974 67.6201 44.7205 68.5186 46.2029C69.417 47.6853 69.8662 49.5121 69.8662 51.6833C69.8662 54.0492 69.3721 56.0932 68.3838 57.8152C67.4105 59.5222 65.9505 60.8324 64.0039 61.7458C62.0723 62.6593 59.6615 63.116 56.7715 63.116C55.0495 63.116 53.4248 62.9662 51.8975 62.6667C50.3851 62.3822 49.0599 61.9405 47.9219 61.3416V55.3445C49.0599 55.9434 50.4225 56.4526 52.0098 56.8718C53.612 57.2761 55.1169 57.4783 56.5244 57.4783C57.902 57.4783 59.0625 57.2986 60.0059 56.9392C60.9492 56.5649 61.6605 55.9958 62.1396 55.2322C62.6338 54.4535 62.8809 53.4653 62.8809 52.2673C62.8809 50.6651 62.3418 49.4373 61.2637 48.5837C60.1855 47.7302 58.5309 47.3035 56.2998 47.3035C55.4463 47.3035 54.5553 47.3858 53.627 47.5505C52.7135 47.7153 51.9499 47.88 51.3359 48.0447L48.5732 46.5623L49.8086 29.8289H67.6201V35.7136H55.8955L55.2891 42.1599C55.7982 42.0551 56.3522 41.9503 56.9512 41.8455C57.5501 41.7406 58.3887 41.6882 59.4668 41.6882Z" fill="#29AAE1"/>
</svg>
