<svg width="91" height="92" viewBox="0 0 91 92" fill="none" xmlns="http://www.w3.org/2000/svg">
<circle cx="45.5" cy="45.8333" r="44" stroke="#46B9EA" stroke-width="3" stroke-dasharray="6 6"/>
<circle cx="45" cy="45.3333" r="40" fill="#E2F2FC"/>
<path d="M43.9688 45.9143C43.9688 48.5647 43.7591 50.9306 43.3398 53.012C42.9355 55.0933 42.2767 56.8603 41.3633 58.3127C40.4648 59.7652 39.2819 60.8733 37.8145 61.637C36.347 62.4006 34.5651 62.7825 32.4688 62.7825C29.8333 62.7825 27.6696 62.1161 25.9775 60.7834C24.2855 59.4358 23.0352 57.5042 22.2266 54.9885C21.418 52.4579 21.0137 49.4332 21.0137 45.9143C21.0137 42.3655 21.3805 39.3333 22.1143 36.8176C22.863 34.287 24.0758 32.3479 25.7529 31.0002C27.43 29.6526 29.6686 28.9788 32.4688 28.9788C35.0892 28.9788 37.2454 29.6526 38.9375 31.0002C40.6445 32.3329 41.9098 34.2646 42.7334 36.7952C43.557 39.3108 43.9688 42.3505 43.9688 45.9143ZM27.9092 45.9143C27.9092 48.415 28.0439 50.5038 28.3135 52.1809C28.598 53.843 29.0697 55.0933 29.7285 55.9319C30.3874 56.7704 31.3008 57.1897 32.4688 57.1897C33.6217 57.1897 34.5277 56.7779 35.1865 55.9543C35.8604 55.1158 36.3395 53.8655 36.624 52.2034C36.9085 50.5263 37.0508 48.4299 37.0508 45.9143C37.0508 43.4137 36.9085 41.3248 36.624 39.6477C36.3395 37.9706 35.8604 36.7128 35.1865 35.8743C34.5277 35.0208 33.6217 34.594 32.4688 34.594C31.3008 34.594 30.3874 35.0208 29.7285 35.8743C29.0697 36.7128 28.598 37.9706 28.3135 39.6477C28.0439 41.3248 27.9092 43.4137 27.9092 45.9143ZM71.2139 55.5276H67.2607V62.3333H60.4775V55.5276H46.4619V50.6985L60.8594 29.4954H67.2607V50.137H71.2139V55.5276ZM60.4775 50.137V44.5667C60.4775 44.0426 60.485 43.4211 60.5 42.7024C60.5299 41.9836 60.5599 41.2649 60.5898 40.5461C60.6198 39.8274 60.6497 39.191 60.6797 38.637C60.7246 38.068 60.7546 37.6711 60.7695 37.4465H60.5898C60.3053 38.0605 60.0059 38.6594 59.6914 39.2434C59.377 39.8124 59.0101 40.4114 58.5908 41.0403L52.5713 50.137H60.4775Z" fill="#29AAE1"/>
</svg>
