<svg width="190" height="65" viewBox="0 0 190 65" fill="none" xmlns="http://www.w3.org/2000/svg">
<g clip-path="url(#clip0_2028_14954)">
<g filter="url(#filter0_d_2028_14954)">
<circle cx="93" cy="27" r="27" fill="#FCFCFC"/>
<circle cx="93" cy="27" r="26" stroke="#BFE5F8" stroke-width="2"/>
</g>
<path d="M89.0001 21C89.0001 18.79 90.7901 17 93.0001 17C95.2101 17 97.0001 18.79 97.0001 21C97.0001 23.21 95.2101 25 93.0001 25C90.7901 25 89.0001 23.21 89.0001 21ZM98.0001 37H99.0001C100.1 37 101 36.1 101 35V30.22C101 29.1 100.39 28.07 99.3901 27.56C98.9601 27.34 98.5001 27.13 98.0001 26.94V37ZM93.3401 32L96.0001 26.33C95.0701 26.12 94.0701 26 93.0001 26C90.4701 26 88.2901 26.7 86.6101 27.56C86.1221 27.8113 85.7134 28.1929 85.4292 28.6625C85.145 29.132 84.9964 29.6712 85.0001 30.22V37H87.3401C87.1201 36.55 87.0001 36.04 87.0001 35.5C87.0001 33.57 88.5701 32 90.5001 32H93.3401ZM91.0001 37L92.4101 34H90.5001C89.6701 34 89.0001 34.67 89.0001 35.5C89.0001 36.33 89.6701 37 90.5001 37H91.0001Z" fill="#1181B8"/>
</g>
<defs>
<filter id="filter0_d_2028_14954" x="62" y="0" width="62" height="62" filterUnits="userSpaceOnUse" color-interpolation-filters="sRGB">
<feFlood flood-opacity="0" result="BackgroundImageFix"/>
<feColorMatrix in="SourceAlpha" type="matrix" values="0 0 0 0 0 0 0 0 0 0 0 0 0 0 0 0 0 0 127 0" result="hardAlpha"/>
<feOffset dy="4"/>
<feGaussianBlur stdDeviation="2"/>
<feComposite in2="hardAlpha" operator="out"/>
<feColorMatrix type="matrix" values="0 0 0 0 0 0 0 0 0 0 0 0 0 0 0 0 0 0 0.12 0"/>
<feBlend mode="normal" in2="BackgroundImageFix" result="effect1_dropShadow_2028_14954"/>
<feBlend mode="normal" in="SourceGraphic" in2="effect1_dropShadow_2028_14954" result="shape"/>
</filter>
<clipPath id="clip0_2028_14954">
<rect width="190" height="65" fill="white"/>
</clipPath>
</defs>
</svg>
