<svg width="190" height="65" viewBox="0 0 190 65" fill="none" xmlns="http://www.w3.org/2000/svg">
<g clip-path="url(#clip0_2028_14968)">
<g filter="url(#filter0_d_2028_14968)">
<circle cx="95" cy="27" r="27" fill="#FCFCFC"/>
<circle cx="95" cy="27" r="26" stroke="#BFE5F8" stroke-width="2"/>
</g>
<path d="M104 22C104 24.21 99.97 26 95 26C90.03 26 86 24.21 86 22M104 22C104 19.79 99.97 18 95 18C90.03 18 86 19.79 86 22M104 22V27M86 22V27M104 27C104 29.21 99.97 31 95 31C90.03 31 86 29.21 86 27M104 27V32C104 34.21 99.97 36 95 36C90.03 36 86 34.21 86 32V27" stroke="#1181B8" stroke-width="2" stroke-linecap="round" stroke-linejoin="round"/>
</g>
<defs>
<filter id="filter0_d_2028_14968" x="64" y="0" width="62" height="62" filterUnits="userSpaceOnUse" color-interpolation-filters="sRGB">
<feFlood flood-opacity="0" result="BackgroundImageFix"/>
<feColorMatrix in="SourceAlpha" type="matrix" values="0 0 0 0 0 0 0 0 0 0 0 0 0 0 0 0 0 0 127 0" result="hardAlpha"/>
<feOffset dy="4"/>
<feGaussianBlur stdDeviation="2"/>
<feComposite in2="hardAlpha" operator="out"/>
<feColorMatrix type="matrix" values="0 0 0 0 0 0 0 0 0 0 0 0 0 0 0 0 0 0 0.12 0"/>
<feBlend mode="normal" in2="BackgroundImageFix" result="effect1_dropShadow_2028_14968"/>
<feBlend mode="normal" in="SourceGraphic" in2="effect1_dropShadow_2028_14968" result="shape"/>
</filter>
<clipPath id="clip0_2028_14968">
<rect width="190" height="65" fill="white"/>
</clipPath>
</defs>
</svg>
