<svg width="190" height="65" viewBox="0 0 190 65" fill="none" xmlns="http://www.w3.org/2000/svg">
<g clip-path="url(#clip0_2028_14982)">
<g filter="url(#filter0_d_2028_14982)">
<circle cx="93" cy="27" r="27" fill="#FCFCFC"/>
<circle cx="93" cy="27" r="26" stroke="#BFE5F8" stroke-width="2"/>
</g>
<path d="M93 17.25C91.0716 17.25 89.1866 17.8218 87.5832 18.8932C85.9798 19.9645 84.7301 21.4873 83.9922 23.2688C83.2542 25.0504 83.0611 27.0108 83.4373 28.9021C83.8136 30.7934 84.7422 32.5307 86.1057 33.8943C87.4693 35.2579 89.2066 36.1865 91.0979 36.5627C92.9892 36.9389 94.9496 36.7458 96.7312 36.0078C98.5127 35.2699 100.035 34.0202 101.107 32.4168C102.178 30.8134 102.75 28.9284 102.75 27C102.747 24.415 101.719 21.9366 99.8913 20.1087C98.0634 18.2808 95.585 17.2527 93 17.25ZM93 35.25C91.3683 35.25 89.7733 34.7661 88.4165 33.8596C87.0598 32.9531 86.0024 31.6646 85.378 30.1571C84.7536 28.6496 84.5902 26.9908 84.9085 25.3905C85.2269 23.7902 86.0126 22.3202 87.1664 21.1664C88.3202 20.0126 89.7902 19.2268 91.3905 18.9085C92.9909 18.5902 94.6497 18.7536 96.1571 19.378C97.6646 20.0024 98.9531 21.0598 99.8596 22.4165C100.766 23.7733 101.25 25.3683 101.25 27C101.248 29.1873 100.378 31.2843 98.8309 32.8309C97.2843 34.3775 95.1873 35.2475 93 35.25ZM99 27C99 27.1989 98.921 27.3897 98.7803 27.5303C98.6397 27.671 98.4489 27.75 98.25 27.75H93C92.8011 27.75 92.6103 27.671 92.4697 27.5303C92.329 27.3897 92.25 27.1989 92.25 27V21.75C92.25 21.5511 92.329 21.3603 92.4697 21.2197C92.6103 21.079 92.8011 21 93 21C93.1989 21 93.3897 21.079 93.5303 21.2197C93.671 21.3603 93.75 21.5511 93.75 21.75V26.25H98.25C98.4489 26.25 98.6397 26.329 98.7803 26.4697C98.921 26.6103 99 26.8011 99 27Z" fill="#1181B8"/>
</g>
<defs>
<filter id="filter0_d_2028_14982" x="62" y="0" width="62" height="62" filterUnits="userSpaceOnUse" color-interpolation-filters="sRGB">
<feFlood flood-opacity="0" result="BackgroundImageFix"/>
<feColorMatrix in="SourceAlpha" type="matrix" values="0 0 0 0 0 0 0 0 0 0 0 0 0 0 0 0 0 0 127 0" result="hardAlpha"/>
<feOffset dy="4"/>
<feGaussianBlur stdDeviation="2"/>
<feComposite in2="hardAlpha" operator="out"/>
<feColorMatrix type="matrix" values="0 0 0 0 0 0 0 0 0 0 0 0 0 0 0 0 0 0 0.12 0"/>
<feBlend mode="normal" in2="BackgroundImageFix" result="effect1_dropShadow_2028_14982"/>
<feBlend mode="normal" in="SourceGraphic" in2="effect1_dropShadow_2028_14982" result="shape"/>
</filter>
<clipPath id="clip0_2028_14982">
<rect width="190" height="65" fill="white"/>
</clipPath>
</defs>
</svg>
