<svg width="42" height="42" viewBox="0 0 42 42" fill="none" xmlns="http://www.w3.org/2000/svg">
<path d="M9.78968 27.0567C9.78968 27.3804 9.78968 27.6861 9.78968 27.9918C9.85595 28.847 10.166 29.6654 10.6831 30.3505C11.2003 31.0355 11.9031 31.5586 12.7084 31.858C13.7591 32.3526 14.914 32.5864 16.0747 32.5394C17.2354 32.4924 18.3676 32.1661 19.3747 31.5882C20.1231 31.2123 20.7472 30.629 21.1721 29.9083C21.5971 29.1875 21.805 28.3599 21.7709 27.5243V27.2006C21.7709 27.2006 21.7709 27.2006 21.7709 27.0567C22.4376 27.1466 23.1222 27.2545 23.8068 27.3265C25.3276 27.4201 26.8012 27.8898 28.0949 28.6931C29.1088 29.3338 29.9464 30.2171 30.5316 31.2628C31.1168 32.3085 31.4311 33.4835 31.446 34.6812C31.446 36.4794 31.446 38.1518 31.446 39.8781V40.4715C32.1085 40.4683 32.7703 40.4262 33.4279 40.3456C33.8296 40.2726 34.1946 40.0657 34.463 39.7586C34.7314 39.4514 34.8874 39.0624 34.9053 38.6553C34.9053 35.3285 34.9053 32.0198 34.9053 28.6212H34.2927C34.1513 28.6387 34.0077 28.6237 33.8729 28.5775C33.7382 28.5313 33.6158 28.455 33.515 28.3544C33.4142 28.2538 33.3378 28.1316 33.2915 27.9971C33.2451 27.8626 33.2302 27.7194 33.2477 27.5782C33.2477 27.1107 33.2477 26.6251 33.2477 26.0677H31.446C31.201 26.1041 30.9508 26.0827 30.7156 26.0052C30.4804 25.9277 30.2666 25.7963 30.0914 25.6215C29.9162 25.4466 29.7846 25.2333 29.7069 24.9985C29.6293 24.7637 29.6078 24.514 29.6443 24.2695V19.5581H41.9319V24.3054C41.9645 24.5493 41.9404 24.7973 41.8614 25.0303C41.7824 25.2633 41.6506 25.475 41.4763 25.649C41.302 25.8229 41.0899 25.9544 40.8565 26.0333C40.623 26.1122 40.3745 26.1362 40.1302 26.1037H38.3285V27.6501C38.3431 27.7875 38.3264 27.9264 38.2797 28.0565C38.233 28.1866 38.1575 28.3044 38.0587 28.4012C37.96 28.4981 37.8406 28.5714 37.7095 28.6157C37.5783 28.66 37.4389 28.6742 37.3015 28.6571H36.3826V38.2956C36.3944 39.155 36.0975 39.9902 35.5455 40.65C34.9936 41.3097 34.2232 41.7503 33.3738 41.8921C33.1279 41.9104 32.881 41.9104 32.6351 41.8921H27.194V37.4325C27.194 36.911 26.8877 36.6053 26.4373 36.6053C26.3313 36.6014 26.2258 36.621 26.1283 36.6625C26.0308 36.704 25.9436 36.7665 25.8731 36.8455C25.8025 36.9245 25.7503 37.0181 25.7201 37.1195C25.69 37.221 25.6826 37.3279 25.6986 37.4325C25.6986 38.907 25.6986 40.3996 25.6986 41.9101H5.88001V39.5724C5.88001 38.8351 5.88001 38.1158 5.88001 37.3785C5.88732 37.2732 5.87342 37.1674 5.83911 37.0674C5.80481 36.9675 5.7508 36.8754 5.68027 36.7966C5.60974 36.7179 5.52412 36.654 5.42846 36.6088C5.33281 36.5636 5.22904 36.5379 5.12329 36.5334C5.01206 36.534 4.90232 36.5591 4.8019 36.6068C4.70148 36.6546 4.61285 36.7239 4.54231 36.8097C4.47178 36.8956 4.42108 36.9959 4.39382 37.1036C4.36656 37.2112 4.36341 37.3235 4.3846 37.4325V42C3.23152 42 2.11447 42 1.01544 42C0.7494 41.986 0.499205 41.8695 0.317674 41.6749C0.136142 41.4802 0.0374832 41.2229 0.0425237 40.957C-0.0507357 38.4861 0.00943658 36.0118 0.222694 33.5483C0.481035 32.0264 1.22308 30.6277 2.33918 29.5591C3.45528 28.4905 4.88621 27.8086 6.42051 27.6142L9.78968 27.0567ZM32.9774 22.0037C33.2837 22.0037 33.59 22.0037 33.8963 22.0037C34.0747 21.976 34.2372 21.8855 34.3547 21.7487C34.4721 21.6118 34.5366 21.4376 34.5366 21.2574C34.5366 21.0773 34.4721 20.903 34.3547 20.7662C34.2372 20.6293 34.0747 20.5389 33.8963 20.5112H32.0946C31.9951 20.5131 31.8971 20.5357 31.8068 20.5773C31.7164 20.619 31.6357 20.6789 31.5697 20.7532C31.5037 20.8275 31.4538 20.9147 31.4232 21.0092C31.3926 21.1038 31.382 21.2036 31.392 21.3024C31.401 21.4886 31.4804 21.6644 31.6141 21.7945C31.7478 21.9246 31.9259 21.9994 32.1126 22.0037C32.3288 22.0217 32.6171 22.0037 32.9234 22.0037H32.9774ZM32.9774 24.8089C33.2837 24.8089 33.608 24.8089 33.9143 24.8089C34.1024 24.809 34.283 24.7357 34.4177 24.6046C34.5523 24.4736 34.6303 24.2953 34.635 24.1076C34.6449 24.0164 34.6363 23.9241 34.6098 23.8363C34.5832 23.7485 34.5392 23.6669 34.4803 23.5964C34.4215 23.5259 34.349 23.468 34.2672 23.4261C34.1855 23.3841 34.0961 23.3591 34.0044 23.3524C33.3268 23.2985 32.6461 23.2985 31.9685 23.3524C31.7947 23.3797 31.6363 23.4681 31.522 23.6016C31.4076 23.7351 31.3448 23.905 31.3448 24.0806C31.3448 24.2563 31.4076 24.4262 31.522 24.5597C31.6363 24.6932 31.7947 24.7816 31.9685 24.8089C32.3288 24.8449 32.6351 24.8449 32.9414 24.8449L32.9774 24.8089Z" fill="#82C7EA"/>
<path d="M25.5184 16.5011C25.5221 18.3284 25.0033 20.1187 24.023 21.662C23.17 22.9948 21.9922 24.0899 20.5998 24.8449C20.4616 24.9084 20.3471 25.0139 20.2726 25.1463C20.1982 25.2788 20.1676 25.4313 20.1854 25.5822C20.1854 26.2895 20.1854 26.9908 20.1854 27.6861C20.1857 28.1341 20.0777 28.5756 19.8707 28.9731C19.6638 29.3707 19.3638 29.7126 18.9963 29.9698C18.03 30.6453 16.8789 31.0076 15.6992 31.0076C14.5195 31.0076 13.3684 30.6453 12.4021 29.9698C12.0267 29.7022 11.7212 29.3486 11.5111 28.9387C11.3011 28.5288 11.1926 28.0745 11.1949 27.6141C11.1949 26.8589 11.1949 26.1036 11.1949 25.3663C11.1714 25.1797 11.0819 25.0076 10.9427 24.8808C9.52373 24.0554 8.33077 22.8931 7.46963 21.4973C6.60849 20.1014 6.10578 18.515 6.00608 16.8787V16.5191C5.70633 16.4481 5.41144 16.358 5.12325 16.2494C4.72612 16.0916 4.3853 15.819 4.14452 15.4666C3.90375 15.1141 3.77401 14.6979 3.77198 14.2713C3.74252 13.8639 3.8346 13.4569 4.0366 13.1017C4.23861 12.7465 4.54149 12.4589 4.90704 12.2753C5.02506 12.2257 5.12389 12.1394 5.18881 12.0292C5.25374 11.9191 5.2813 11.7909 5.26738 11.6639C5.13118 9.77701 5.44612 7.88488 6.18624 6.14332C7.11905 4.09634 8.68661 2.40297 10.6575 1.31322C12.6284 0.223481 14.8981 -0.204879 17.1315 0.0914022C19.365 0.387683 21.4438 1.39289 23.061 2.95862C24.6783 4.52434 25.7483 6.56761 26.113 8.78672C26.2571 9.75776 26.113 10.7468 26.2571 11.7358C26.2765 11.9186 26.3671 12.0865 26.5093 12.2033C26.942 12.4156 27.295 12.7609 27.5164 13.1883C27.7378 13.6158 27.816 14.1028 27.7393 14.5779C27.6627 15.053 27.4353 15.491 27.0907 15.8275C26.746 16.164 26.3023 16.3812 25.8247 16.4472L25.5184 16.5011ZM24.005 12.0415H23.8789H23.5546C20.9504 12.0241 18.3966 11.3233 16.1496 10.0095C16.0393 9.93046 15.907 9.88795 15.7712 9.88795C15.6355 9.88795 15.5032 9.93046 15.3929 10.0095C13.7353 10.9757 11.8948 11.588 9.98781 11.8077C9.15904 11.9156 8.31224 11.9696 7.44743 12.0415V14.2353C7.46362 14.3532 7.52106 14.4615 7.60958 14.541C8.54646 15.5301 9.41127 16.5191 10.4202 17.4901C10.4781 17.5431 10.5465 17.5833 10.6211 17.6081C10.6956 17.6329 10.7745 17.6417 10.8526 17.634C14.0786 17.081 17.3759 17.0871 20.5998 17.652C20.7877 17.6616 20.9729 17.6042 21.1223 17.4901C22.0411 16.5551 22.924 15.6919 23.8248 14.6489C23.8248 14.541 24.041 14.4152 24.041 14.2893C24.023 13.5161 24.005 12.7788 24.005 12.0415ZM21.7168 22.1116C22.4292 21.4062 22.9925 20.5653 23.3731 19.6386C23.7538 18.7119 23.9442 17.7184 23.9329 16.7169L21.861 18.8927C21.7869 18.9713 21.7424 19.0729 21.7348 19.1805C21.7168 20.0976 21.7168 21.0506 21.7168 22.1116ZM9.82566 21.9138V19.1805C9.81973 19.0703 9.7822 18.9642 9.71756 18.8747L7.64562 16.6989C7.64394 18.6512 8.41444 20.5253 9.78963 21.9138H9.82566Z" fill="#1181B8"/>
<path d="M29.7163 17.9756C29.7163 17.0765 29.7163 16.1774 29.7163 15.3322C29.7646 14.9716 29.9432 14.6409 30.2186 14.4025C30.494 14.1641 30.8472 14.0343 31.2117 14.0375C31.9684 14.0375 32.7251 14.0375 33.5179 14.0375C33.2742 13.4919 33.2329 12.8777 33.4012 12.3045C33.5696 11.7313 33.9366 11.2365 34.4367 10.9085C34.8466 10.6157 35.338 10.4583 35.8421 10.4583C36.3461 10.4583 36.8375 10.6157 37.2474 10.9085C37.7354 11.2382 38.0902 11.7301 38.2486 12.2966C38.407 12.8631 38.3586 13.4673 38.1122 14.0015H40.1841C40.4284 13.9689 40.677 13.993 40.9104 14.0719C41.1439 14.1507 41.356 14.2822 41.5303 14.4562C41.7046 14.6301 41.8363 14.8418 41.9153 15.0748C41.9943 15.3078 42.0185 15.5559 41.9858 15.7997V17.8137C41.9792 17.8615 41.9792 17.9099 41.9858 17.9576L29.7163 17.9756ZM32.9233 17.0405H33.8061C33.9141 17.0573 34.0243 17.0505 34.1294 17.0207C34.2345 16.9909 34.3318 16.9388 34.4148 16.8679C34.4977 16.797 34.5643 16.709 34.61 16.61C34.6556 16.511 34.6793 16.4032 34.6793 16.2942C34.6793 16.1852 34.6556 16.0775 34.61 15.9785C34.5643 15.8795 34.4977 15.7915 34.4148 15.7206C34.3318 15.6497 34.2345 15.5975 34.1294 15.5677C34.0243 15.5379 33.9141 15.5312 33.8061 15.548C33.1936 15.548 32.581 15.548 32.0045 15.548C31.8261 15.5757 31.6635 15.6661 31.5461 15.803C31.4287 15.9398 31.3642 16.1141 31.3642 16.2942C31.3642 16.4744 31.4287 16.6486 31.5461 16.7855C31.6635 16.9223 31.8261 17.0128 32.0045 17.0405H32.9233Z" fill="#46B9EA"/>
<path d="M32.9235 22.0035C32.6172 22.0035 32.3289 22.0035 32.0226 22.0035C31.8359 21.9992 31.6578 21.9244 31.5241 21.7943C31.3904 21.6642 31.311 21.4884 31.302 21.3022C31.292 21.2034 31.3026 21.1036 31.3332 21.0091C31.3638 20.9145 31.4137 20.8274 31.4797 20.753C31.5457 20.6787 31.6264 20.6188 31.7168 20.5772C31.8071 20.5355 31.9051 20.513 32.0046 20.511H33.8063C33.9847 20.5387 34.1473 20.6292 34.2647 20.766C34.3821 20.9029 34.4466 21.0771 34.4466 21.2573C34.4466 21.4374 34.3821 21.6117 34.2647 21.7485C34.1473 21.8853 33.9847 21.9758 33.8063 22.0035C33.5361 22.0215 33.2118 22.0035 32.9235 22.0035Z" fill="#1181B8"/>
<path d="M32.9414 24.8446C32.6351 24.8446 32.3288 24.8446 32.0045 24.8446C31.8307 24.8173 31.6724 24.7289 31.558 24.5954C31.4437 24.4619 31.3809 24.292 31.3809 24.1164C31.3809 23.9407 31.4437 23.7709 31.558 23.6373C31.6724 23.5038 31.8307 23.4154 32.0045 23.3881C32.6821 23.3342 33.3629 23.3342 34.0404 23.3881C34.1321 23.3948 34.2215 23.4199 34.3033 23.4618C34.385 23.5037 34.4575 23.5616 34.5164 23.6321C34.5752 23.7026 34.6192 23.7842 34.6458 23.872C34.6724 23.9599 34.681 24.0521 34.671 24.1433C34.6663 24.331 34.5883 24.5093 34.4537 24.6404C34.319 24.7714 34.1384 24.8447 33.9504 24.8446C33.572 24.8446 33.2117 24.8446 32.9414 24.8446Z" fill="#1181B8"/>
<path d="M24.0051 12.0413C24.0051 12.7786 24.0051 13.5159 24.0051 14.2532C24.0051 14.379 23.8789 14.5049 23.7889 14.6128C22.888 15.5659 21.9872 16.5189 21.0863 17.454C20.9514 17.5732 20.7798 17.643 20.5999 17.6518C17.4043 17.1032 14.1384 17.1032 10.9428 17.6518C10.8646 17.6595 10.7857 17.6507 10.7112 17.6259C10.6367 17.6011 10.5683 17.5609 10.5104 17.5079C9.5555 16.5369 8.7087 15.5479 7.69975 14.5589C7.61123 14.4793 7.55378 14.371 7.5376 14.2532V12.0593C8.40241 12.0593 9.33929 11.9334 10.078 11.8255C11.9849 11.6058 13.8254 10.9935 15.4831 10.0273C15.5933 9.94828 15.7257 9.90576 15.8614 9.90576C15.9972 9.90576 16.1295 9.94828 16.2398 10.0273C18.4868 11.3411 21.0406 12.0419 23.6447 12.0593H23.969L24.0051 12.0413Z" fill="white"/>
<path d="M21.7168 22.1115C21.7168 21.0505 21.7168 20.0975 21.7168 19.1264C21.7243 19.0189 21.7689 18.9172 21.8429 18.8387L23.9149 16.6628C23.9358 17.6721 23.7518 18.6751 23.374 19.6115C22.9963 20.5479 22.4326 21.3983 21.7168 22.1115Z" fill="white"/>
<path d="M9.78942 21.9136C8.40102 20.531 7.61727 18.6562 7.60938 16.6987L9.78942 18.8746C9.85406 18.964 9.89159 19.0702 9.89752 19.1803L9.78942 21.9136Z" fill="white"/>
<path d="M32.9235 17.0403H32.0407C31.8623 17.0126 31.6998 16.9222 31.5823 16.7853C31.4649 16.6485 31.4004 16.4742 31.4004 16.2941C31.4004 16.1139 31.4649 15.9397 31.5823 15.8028C31.6998 15.666 31.8623 15.5755 32.0407 15.5478C32.6352 15.5478 33.2478 15.5478 33.8424 15.5478C33.9503 15.531 34.0606 15.5378 34.1656 15.5676C34.2707 15.5974 34.368 15.6495 34.451 15.7204C34.5339 15.7913 34.6005 15.8793 34.6462 15.9783C34.6919 16.0774 34.7155 16.1851 34.7155 16.2941C34.7155 16.4031 34.6919 16.5108 34.6462 16.6098C34.6005 16.7089 34.5339 16.7968 34.451 16.8677C34.368 16.9386 34.2707 16.9908 34.1656 17.0206C34.0606 17.0504 33.9503 17.0571 33.8424 17.0403H32.9235Z" fill="#46B9EA"/>
</svg>
