<svg width="44" height="42" viewBox="0 0 44 42" fill="none" xmlns="http://www.w3.org/2000/svg">
<path d="M40.7049 5.98202V14.991C40.7991 15.6738 40.698 16.3694 40.4131 16.9971H42.5651C42.7386 17.0203 42.9151 16.9932 43.0735 16.9188C43.232 16.8444 43.3657 16.726 43.4587 16.5777V5.27075H40.8326C40.6502 5.47136 40.7049 5.7267 40.7049 5.98202Z" fill="#29AAE1"/>
<path d="M43.0392 0H40.4131C40.5632 0.0922136 40.684 0.225207 40.7615 0.383405C40.839 0.541603 40.8699 0.718537 40.8508 0.893647C40.8508 2.18847 40.8508 3.4833 40.8508 4.77812C40.8508 5.06991 40.942 5.16108 41.2338 5.16108H43.4769V0.419469C43.4583 0.31197 43.4058 0.213227 43.327 0.137745C43.2483 0.0622634 43.1474 0.0139908 43.0392 0Z" fill="#29AAE1"/>
<path d="M27.0453 18.31H29.1608C30.2839 18.4605 31.3274 18.9726 32.1335 19.7688C32.9397 20.5651 33.4646 21.6022 33.6289 22.7234C33.6465 22.9297 33.6465 23.1371 33.6289 23.3434V28.7233C33.6289 28.9239 33.6289 29.1427 33.5012 29.3069C33.3735 29.471 33.2824 29.161 33.2459 29.0333C33.012 28.2507 32.5295 27.5657 31.8713 27.0819C31.2131 26.5982 30.4152 26.3421 29.5985 26.3525H29.5073C28.6818 26.2887 27.8526 26.2887 27.0271 26.3525C26.6806 26.3525 26.3523 26.3525 26.0058 26.3525C21.9755 26.3525 17.9269 26.3525 13.8783 26.3525C12.9664 26.348 12.0837 26.6738 11.3933 27.2696C10.703 27.8654 10.2516 28.6909 10.1226 29.5936C9.99366 30.4963 10.1958 31.4153 10.6917 32.1805C11.1877 32.9458 11.9439 33.5057 12.8205 33.7567C13.0961 33.8348 13.3763 33.8958 13.6594 33.9391C14.3882 33.9846 15.1191 33.9846 15.8479 33.9391C16.5409 33.9391 16.5956 33.9391 16.5956 34.6868C16.5956 36.8874 16.5956 39.0941 16.5956 41.3068C16.5956 41.5256 16.5956 41.7445 16.4679 41.9086C15.0637 41.9086 13.6594 41.9086 12.2369 41.9086C11.2447 41.8465 10.2906 41.5031 9.48646 40.9185C8.68227 40.3339 8.06122 39.5324 7.69596 38.6077C7.34767 37.3132 7.22428 35.9684 7.3312 34.6321C7.37465 34.4092 7.34258 34.1781 7.24004 33.9755C7.21253 33.7942 7.21253 33.6098 7.24004 33.4284V26.9178C7.25986 26.7813 7.2433 26.642 7.19207 26.514C7.14083 26.3859 7.05674 26.2736 6.94824 26.1884C7.33122 26.1884 7.3677 25.8966 7.38594 25.5501C7.29479 24.5674 7.29479 23.5784 7.38594 22.5957C7.51986 21.6955 7.89362 20.848 8.468 20.142C9.04239 19.4361 9.7962 18.8977 10.6503 18.5836C11.2794 18.3234 11.9581 18.2051 12.6382 18.237C13.8965 18.237 15.1731 18.237 16.4314 18.237C16.4927 18.3268 16.5356 18.4279 16.5575 18.5343C16.5794 18.6407 16.5799 18.7505 16.5591 18.8572V22.5045C16.5591 23.2705 16.7779 23.5075 17.5439 23.5075H25.8052C26.5712 23.5075 26.79 23.2705 26.79 22.5045V18.8572C26.8025 18.649 26.8938 18.4533 27.0453 18.31Z" fill="#BFE5F8"/>
<path d="M16.5585 41.9818C16.5585 39.5381 16.5585 37.0943 16.5585 34.6871C16.5585 34.2311 16.4308 34.1399 16.0114 34.1582C15.5919 34.1764 14.7166 34.1582 14.06 34.1582C13.9997 34.1947 13.9288 34.2096 13.8588 34.2004C13.7889 34.1912 13.7243 34.1584 13.6755 34.1075C13.6267 34.0565 13.5967 33.9905 13.5906 33.9203C13.5844 33.85 13.6023 33.7797 13.6414 33.7211C13.6805 33.6624 13.7385 33.6188 13.8057 33.5975C13.8729 33.5762 13.9454 33.5784 14.0112 33.6039C14.077 33.6293 14.1321 33.6764 14.1675 33.7374C14.2029 33.7984 14.2165 33.8696 14.2059 33.9393H27.683C28.2666 33.9393 28.8502 33.9393 29.5067 33.9393C29.6891 33.9393 29.8897 33.9394 30.0538 34.067C30.2179 34.1947 29.762 34.2858 29.5979 34.2858C29.0143 34.2858 28.449 34.2858 27.8654 34.2858C27.2818 34.2858 27.2453 34.2858 27.2453 34.8876V41.3253C27.267 41.4418 27.2652 41.5615 27.2402 41.6773C27.2151 41.7932 27.1673 41.9029 27.0994 42.0001L16.5585 41.9818Z" fill="#0F6895"/>
<path d="M42.948 5.01515H41.6349C40.9784 5.01515 40.9784 5.0152 40.9784 4.37691C40.9784 3.20974 40.9784 2.04256 40.9784 0.875392C40.9784 0.455943 40.9784 0.109422 40.4313 0H34.9602C34.8178 0.0988618 34.7041 0.233569 34.6304 0.390473C34.5568 0.547378 34.5259 0.72096 34.5408 0.893647C34.5408 2.33436 34.5408 3.77507 34.5408 5.21579C34.5408 8.86317 34.5408 12.5106 34.5408 16.1579C34.5312 16.2705 34.5473 16.3838 34.5878 16.4893C34.6284 16.5948 34.6923 16.6897 34.7748 16.767C34.8573 16.8442 34.9562 16.9017 35.0641 16.9352C35.1721 16.9687 35.2861 16.9773 35.3979 16.9604H40.3766C40.5165 16.8754 40.6309 16.7544 40.7079 16.61C40.7849 16.4656 40.8216 16.3032 40.8142 16.1397C40.8142 12.4923 40.8142 8.84493 40.8142 5.32521H42.9662C43.051 5.33377 43.1366 5.32527 43.218 5.30022C43.2995 5.27516 43.3751 5.23407 43.4404 5.17934C43.3019 5.06611 43.1267 5.00765 42.948 5.01515Z" fill="#1181B8"/>
<path d="M33.4828 29.3069C33.6104 29.1792 33.4828 29.0151 33.4828 28.8692V23.3981C33.4673 22.1908 33.0362 21.0258 32.2623 20.099C31.4884 19.1723 30.4188 18.5405 29.2336 18.31C29.2336 18.31 29.1424 18.31 29.0877 18.31C30.043 18.2672 31.0002 18.2977 31.9509 18.4012C32.9795 18.6311 33.9167 19.1611 34.6439 19.924C35.3711 20.6869 35.8556 21.6484 36.0359 22.6869C36.0906 23.7257 36.0906 24.7666 36.0359 25.8054C36.0359 26.0243 36.0359 26.1701 36.3095 26.2431C36.2068 26.5106 36.1573 26.7955 36.1636 27.082C36.1636 29.1853 36.1636 31.2826 36.1636 33.3737C36.2051 33.6067 36.1597 33.8468 36.0359 34.0485V36.8387C36.0168 38.0706 35.5637 39.2563 34.7564 40.187C33.9492 41.1177 32.8394 41.7338 31.6226 41.9269C30.6994 41.9817 29.7738 41.9817 28.8506 41.9269C28.8506 41.7262 29.0512 41.7627 29.1606 41.7262C30.362 41.492 31.4399 40.8355 32.1992 39.8754C32.9585 38.9154 33.3492 37.7153 33.3004 36.4922C33.3004 34.778 33.3004 33.0637 33.3004 31.3312C33.3273 31.1682 33.3273 31.0018 33.3004 30.8388C33.3368 30.3836 33.3368 29.9262 33.3004 29.471C33.3083 29.4273 33.3306 29.3875 33.3636 29.3578C33.3966 29.3281 33.4385 29.3102 33.4828 29.3069Z" fill="#0F6895"/>
<path d="M27.0454 18.3101V22.7599C27.0628 22.8757 27.0534 22.9939 27.0179 23.1055C26.9825 23.2171 26.9219 23.3191 26.8409 23.4036C26.7599 23.4882 26.6606 23.553 26.5506 23.5931C26.4406 23.6333 26.3229 23.6477 26.2065 23.6353H17.4163C17.2984 23.6508 17.1786 23.6387 17.0662 23.5999C16.9539 23.5611 16.8521 23.4967 16.7689 23.4118C16.6858 23.3268 16.6235 23.2237 16.5871 23.1106C16.5507 22.9974 16.5411 22.8774 16.5591 22.7599V18.3101H27.0454Z" fill="#46B9EA"/>
<path d="M33.5008 30.9119C33.6102 31.0578 33.5008 31.2219 33.5008 31.3678V36.8389C33.4755 38.0612 33.0185 39.2352 32.2108 40.1531C31.4031 41.071 30.2967 41.6735 29.0875 41.854H28.9416H26.9902C26.9902 39.4103 26.9902 36.9665 26.9902 34.5593C26.9902 34.1033 27.1179 34.0121 27.5191 34.0304C28.1939 34.0304 28.8504 34.0304 29.5069 34.0304C29.6528 34.0304 29.8169 34.0304 29.9628 34.0304C30.0707 33.9239 30.2129 33.8593 30.364 33.848C31.032 33.7133 31.6516 33.4021 32.1583 32.9466C32.6651 32.4912 33.0405 31.9082 33.2455 31.2584C33.3367 31.1307 33.3549 30.9848 33.5008 30.9119Z" fill="#BFE5F8"/>
<path d="M29.3612 11.7995C29.3884 11.5328 29.3884 11.264 29.3612 10.9972V3.44706C29.3612 3.06408 29.3612 2.69936 28.8871 2.55347H24.036C23.1606 2.55347 22.9965 2.73579 22.9965 3.59293C22.9965 6.27376 22.9965 8.97285 22.9965 11.6537C22.9965 13.1491 22.9965 14.6263 22.9965 16.1035C22.9841 16.2199 22.9985 16.3376 23.0386 16.4476C23.0788 16.5576 23.1436 16.6569 23.2282 16.738C23.3127 16.819 23.4147 16.8795 23.5263 16.9149C23.6379 16.9504 23.7561 16.9598 23.8719 16.9424H28.8323C29.27 16.8329 29.3795 16.523 29.3795 16.1217V12.2373C29.4161 12.0927 29.4098 11.9406 29.3612 11.7995Z" fill="#46B9EA"/>
<path d="M36.1816 34.0487V26.7539C36.1816 26.5533 36.1816 26.3345 36.4552 26.3345C37.3786 26.389 38.2526 26.7698 38.9213 27.4089C39.59 28.048 40.0101 28.9038 40.1064 29.8238C40.2028 30.7438 39.9693 31.668 39.4475 32.4318C38.9257 33.1956 38.1496 33.7492 37.2576 33.994C36.9036 34.0654 36.541 34.0838 36.1816 34.0487Z" fill="#E2F2FC"/>
<path d="M7.00308 26.2615C7.29487 26.2615 7.44078 26.2615 7.44078 26.6627C7.44078 28.997 7.44078 31.3313 7.44078 33.6657C7.44078 33.7933 7.44077 33.9392 7.34959 34.0486C6.35097 34.0369 5.39485 33.6428 4.67802 32.9474C3.9612 32.2521 3.5382 31.3084 3.49614 30.3106C3.45408 29.3128 3.79614 28.3368 4.4519 27.5836C5.10766 26.8303 6.02722 26.3572 7.02131 26.2615H7.00308Z" fill="#46B9EA"/>
<path d="M6.34654 14.389C6.47949 14.1505 6.52467 13.8731 6.47421 13.6048V0.747721C6.49074 0.574932 6.44182 0.402259 6.33713 0.263803C6.23245 0.125348 6.07959 0.031186 5.90884 0H0.437764C0.301904 0.0847589 0.190227 0.203201 0.113547 0.343779C0.0368683 0.484357 -0.00219708 0.642314 9.53829e-05 0.802429C9.53829e-05 5.32519 9.53829e-05 9.84795 9.53829e-05 14.3707C9.53829e-05 14.9725 9.53829e-05 15.5743 9.53829e-05 16.1944C9.53829e-05 16.8145 0.23717 17.0151 0.820751 17.0151H5.85413C6.00977 16.9739 6.14684 16.8811 6.24291 16.7519C6.33898 16.6227 6.38838 16.4647 6.38302 16.3038C6.41049 15.7875 6.41049 15.2701 6.38302 14.7537C6.40494 14.6941 6.41305 14.6303 6.40673 14.5671C6.40041 14.5039 6.37983 14.443 6.34654 14.389Z" fill="#BFE5F8"/>
<path d="M17.9636 14.3891C18.0521 14.2614 18.091 14.1058 18.073 13.9515C18.073 13.7326 18.073 13.532 18.073 13.3132C18.073 12.2554 18.073 11.1977 18.073 10.1217C18.073 9.53813 17.9271 9.33754 17.4529 9.17341H12.3831C12.2883 9.16458 12.1927 9.17703 12.1033 9.20992C12.014 9.24281 11.9331 9.29528 11.8667 9.36347C11.8003 9.43167 11.7499 9.51389 11.7193 9.60407C11.6888 9.69424 11.6788 9.79008 11.6901 9.88462V16.2128C11.6901 16.7964 11.9272 17.0335 12.5107 17.0335H17.5259C17.6612 16.9895 17.7811 16.9077 17.8715 16.7979C17.962 16.688 18.0192 16.5546 18.0365 16.4134C18.1183 15.739 18.0936 15.0559 17.9636 14.3891Z" fill="#BFE5F8"/>
<path d="M31.9693 3.30104C31.9782 3.20863 31.9662 3.11539 31.9342 3.02822C31.9023 2.94106 31.8511 2.86219 31.7846 2.79742C31.7181 2.73266 31.6379 2.68363 31.5499 2.654C31.4619 2.62438 31.3684 2.61488 31.2763 2.62623H28.9966C29.1281 2.75135 29.228 2.90586 29.2882 3.07703C29.3484 3.24821 29.3673 3.43119 29.3432 3.61104C29.3432 6.14597 29.3432 8.68091 29.3432 11.1976C29.2883 11.3759 29.2883 11.5664 29.3432 11.7447H29.252C29.252 13.2036 29.252 14.6444 29.252 16.1033C29.2716 16.2739 29.2426 16.4466 29.1684 16.6015C29.0942 16.7563 28.9778 16.8871 28.8325 16.9787H31.0574C31.641 16.9787 31.8599 16.7416 31.8599 16.1581V11.7265C31.9693 8.91801 31.9693 6.10953 31.9693 3.30104Z" fill="#1181B8"/>
<path d="M20.4798 9.64777C20.4376 9.49052 20.3413 9.35318 20.2079 9.2598C20.0745 9.16643 19.9125 9.123 19.7503 9.13714H17.416C17.587 9.23464 17.7261 9.37945 17.8167 9.55416C17.9073 9.72887 17.9455 9.92605 17.9266 10.122C17.9266 11.5201 17.9266 12.9244 17.9266 14.3347C17.9266 14.7906 17.9266 15.2283 17.9266 15.6842C17.967 15.9139 17.948 16.1501 17.8714 16.3703C17.7947 16.5905 17.6631 16.7875 17.489 16.9425H19.5497C20.261 16.9425 20.5345 16.669 20.5345 15.976V9.95782C20.5345 9.88488 20.571 9.75719 20.4798 9.64777Z" fill="#1181B8"/>
<path d="M9.02701 0.857138C9.03909 0.689943 9.00663 0.522564 8.93295 0.371996C8.85927 0.221428 8.747 0.0930502 8.60757 0H5.98145C6.13154 0.0922136 6.25236 0.225207 6.32984 0.383405C6.40733 0.541603 6.43827 0.718537 6.41911 0.893647C6.41911 5.37993 6.41911 9.86622 6.41911 14.3525C6.41911 14.9179 6.41911 15.5014 6.41911 16.0668C6.43042 16.239 6.39788 16.4113 6.32453 16.5676C6.25118 16.7239 6.13942 16.859 5.99967 16.9604H8.16987C8.28256 16.9786 8.39796 16.9701 8.50678 16.9356C8.61559 16.9011 8.71478 16.8415 8.79638 16.7617C8.87798 16.6819 8.9397 16.584 8.97658 16.476C9.01347 16.3679 9.02451 16.2528 9.00878 16.1397V0.820684L9.02701 0.857138Z" fill="#BFE5F8"/>
<path d="M27.738 34.0303H13.6408C12.7252 33.9729 11.8588 33.5962 11.1922 32.9659C10.5257 32.3356 10.1013 31.4916 9.99283 30.5806C9.88439 29.6697 10.0988 28.7495 10.5987 27.9803C11.0987 27.2111 11.8525 26.6416 12.729 26.3708C13.2043 26.2433 13.6961 26.1879 14.1879 26.2067H29.1969C29.3467 26.1704 29.503 26.1704 29.6528 26.2067C29.3063 26.462 28.9051 26.3161 28.5222 26.3343C28.3235 26.3425 28.1252 26.3116 27.9386 26.2432C28.4163 26.3256 28.8719 26.5059 29.2767 26.7726C29.6816 27.0394 30.0269 27.3868 30.2912 27.7933C30.6938 28.3184 30.9232 28.9557 30.9477 29.617C30.6741 29.7447 30.6559 29.4711 30.5647 29.3617C30.4535 29.2277 30.3141 29.12 30.1565 29.046C29.9989 28.9721 29.8269 28.9337 29.6528 28.9337C29.4788 28.9337 29.3068 28.9721 29.1492 29.046C28.9916 29.12 28.8522 29.2277 28.741 29.3617C28.6334 29.4639 28.5477 29.5869 28.4892 29.7233C28.4306 29.8597 28.4004 30.0065 28.4004 30.155C28.4004 30.3034 28.4306 30.4502 28.4892 30.5866C28.5477 30.723 28.6334 30.846 28.741 30.9483C28.9497 31.1727 29.2373 31.3076 29.5433 31.3246C29.8493 31.3416 30.15 31.2394 30.3823 31.0395C30.51 30.9301 30.5829 30.7112 30.8018 30.7477C30.8514 30.8336 30.8775 30.9311 30.8775 31.0304C30.8775 31.1296 30.8514 31.2271 30.8018 31.313C30.6217 32.0206 30.2334 32.6578 29.6872 33.1422C29.141 33.6267 28.462 33.936 27.738 34.0303Z" fill="#1181B8"/>
<path d="M27.7383 34.0303C28.4102 33.8565 29.0338 33.5323 29.562 33.082C29.9172 32.7956 30.2092 32.4387 30.4195 32.0338C30.6298 31.6288 30.7538 31.1847 30.7838 30.7294C30.6755 30.4101 30.6755 30.064 30.7838 29.7447C30.6926 28.9233 30.3545 28.1489 29.814 27.5238C29.2735 26.8986 28.5561 26.4521 27.7565 26.2432H29.5802C30.3944 26.254 31.1845 26.5205 31.839 27.0048C32.4935 27.4891 32.9792 28.1669 33.2276 28.9422L33.337 29.307C33.4282 29.838 33.4282 30.3807 33.337 30.9118C33.169 31.7388 32.7398 32.49 32.1127 33.0547C31.4856 33.6194 30.6938 33.9678 29.8538 34.0486L27.7383 34.0303Z" fill="#46B9EA"/>
<path d="M13.9513 31.4406C13.7774 31.4433 13.6048 31.4103 13.4441 31.3439C13.2834 31.2775 13.138 31.1789 13.0167 31.0542C12.8955 30.9296 12.801 30.7815 12.739 30.619C12.6771 30.4565 12.649 30.2831 12.6565 30.1093C12.674 29.7764 12.8141 29.4618 13.0498 29.2261C13.2856 28.9904 13.6002 28.8503 13.933 28.8328C14.2803 28.8369 14.6131 28.973 14.8637 29.2134C15.1143 29.4539 15.264 29.7807 15.2825 30.1276C15.2732 30.476 15.1293 30.8073 14.8812 31.052C14.633 31.2968 14.2998 31.436 13.9513 31.4406Z" fill="#46B9EA"/>
<path d="M30.93 29.7448C31.0036 30.0689 31.0036 30.4054 30.93 30.7295C30.8338 30.9089 30.6977 31.0639 30.5323 31.1825C30.3668 31.301 30.1764 31.3801 29.9756 31.4136C29.7749 31.4471 29.5691 31.434 29.3741 31.3755C29.1791 31.317 29.0002 31.2145 28.851 31.0761C28.6682 30.9211 28.5359 30.7151 28.4709 30.4844C28.4059 30.2537 28.4112 30.0089 28.4863 29.7812C28.5605 29.5468 28.6992 29.3379 28.8864 29.1783C29.0736 29.0188 29.3019 28.9151 29.5452 28.879C29.7885 28.8429 30.0371 28.8758 30.2626 28.9741C30.4881 29.0723 30.6814 29.2319 30.8206 29.4347C30.8024 29.5259 30.8571 29.6354 30.93 29.7448Z" fill="#46B9EA"/>
<path d="M21.7929 31.4407C21.1634 31.452 20.5546 31.2163 20.0968 30.7841C20.031 30.7278 19.9768 30.6592 19.9375 30.582C19.8982 30.5048 19.8745 30.4206 19.8677 30.3342C19.861 30.2478 19.8713 30.161 19.898 30.0786C19.9248 29.9962 19.9676 29.9199 20.0239 29.8541C20.0802 29.7882 20.1489 29.734 20.2261 29.6947C20.3033 29.6554 20.3875 29.6317 20.4738 29.6249C20.5602 29.6182 20.647 29.6285 20.7294 29.6553C20.8118 29.6821 20.8881 29.7248 20.954 29.7811C21.063 29.8965 21.1945 29.9883 21.3403 30.0511C21.4862 30.1139 21.6432 30.1463 21.802 30.1463C21.9608 30.1463 22.1178 30.1139 22.2637 30.0511C22.4095 29.9883 22.5409 29.8965 22.65 29.7811C22.7763 29.6564 22.9466 29.5864 23.1242 29.5864C23.3017 29.5864 23.472 29.6564 23.5983 29.7811C23.6579 29.8511 23.7022 29.9328 23.7282 30.0209C23.7542 30.1091 23.7614 30.2016 23.7494 30.2927C23.7373 30.3838 23.7063 30.4714 23.6583 30.5498C23.6103 30.6282 23.5464 30.6956 23.4707 30.7477C23.2521 30.9702 22.9908 31.1463 22.7025 31.2654C22.4142 31.3844 22.1048 31.4441 21.7929 31.4407Z" fill="#FEFEFE"/>
</svg>
