<svg width="42" height="42" viewBox="0 0 42 42" fill="none" xmlns="http://www.w3.org/2000/svg">
<path d="M30.5117 0C30.3849 0.126924 30.2399 0 30.095 0H11.9745C11.8295 0 11.6664 0 11.5396 0H30.5117Z" fill="#1181B8"/>
<path d="M9.09326 1.46868C9.41717 0.849406 9.96976 0.381024 10.6335 0.163181C10.7603 0.163181 10.9053 0.163187 10.9959 0H11.5576C11.6882 0.0354434 11.8258 0.0354434 11.9563 0H30.0768C30.2073 0.0354434 30.3449 0.0354434 30.4755 0H30.8923C31.2933 0.141411 31.6813 0.317361 32.052 0.525842C32.4186 0.789494 32.7191 1.13469 32.9298 1.53428C33.1404 1.93387 33.2555 2.37692 33.266 2.82858C33.266 3.33627 33.266 3.82584 33.266 4.33353C33.0813 4.46215 32.854 4.51415 32.6318 4.47859C27.1957 4.47859 21.9226 4.47859 16.577 4.47859H11.9201C11.7211 4.49661 11.521 4.49661 11.3221 4.47859C11.1228 4.47859 11.1227 4.26101 11.1771 4.11596C11.612 3.20936 10.9415 2.46596 10.1442 2.13958L9.29256 1.74068C9.22008 1.65002 9.09326 1.63187 9.09326 1.46868Z" fill="#10577C"/>
<path d="M42.0001 37.0073C41.9069 37.4002 41.792 37.7876 41.6558 38.1677C41.3124 39.1709 40.6934 40.0568 39.8697 40.7239C39.0459 41.391 38.0509 41.8122 36.9988 41.9391C35.4882 42.1598 33.9515 41.7754 32.7224 40.8694C32.5739 40.8403 32.4361 40.7714 32.3237 40.6699C31.6195 40.0485 31.073 39.2686 30.7291 38.3944C30.3852 37.5202 30.2539 36.5767 30.3459 35.6417C30.4379 34.7068 30.7507 33.8071 31.2584 33.0168C31.7661 32.2265 32.4542 31.5682 33.266 31.0962C34.0008 30.6917 34.8069 30.433 35.6398 30.3347C36.428 30.2732 37.2207 30.3593 37.9773 30.5885C38.1654 30.624 38.3371 30.7195 38.4666 30.8605C39.2511 31.2399 39.9578 31.7626 40.5504 32.4017C41.3111 33.2496 41.7865 34.3151 41.9095 35.4479C42.0182 35.6111 41.9095 35.7924 41.9095 35.9556V36.4452C41.8738 36.5218 41.8554 36.6054 41.8554 36.6899C41.8554 36.7745 41.8738 36.858 41.9095 36.9347L42.0001 37.0073Z" fill="#86D1F3"/>
<path d="M42 35.9554C41.855 35.7923 42 35.6109 42 35.4478V35.9554Z" fill="#9DB2CE"/>
<path d="M41.9998 36.9346C41.9387 36.8678 41.9048 36.7804 41.9048 36.6898C41.9048 36.5992 41.9387 36.5119 41.9998 36.4451V36.9346Z" fill="#BFE5F8"/>
<path d="M33.3201 31.1686C32.5166 31.6828 31.8261 32.3552 31.2906 33.1449C30.708 34.0796 30.4061 35.1622 30.4208 36.2636C30.2791 36.307 30.1276 36.307 29.9859 36.2636H9.45535C9.20166 36.2636 8.92985 36.2636 8.7124 36.1549V34.3417C8.8852 33.8535 9.08483 33.3753 9.31038 32.9093C10.6848 30.0412 12.2152 27.2508 13.8949 24.5504C15.4879 22.0171 17.2496 19.5941 19.168 17.2977C19.3815 16.9448 19.6807 16.6516 20.0377 16.4455C20.744 16.4092 21.4516 16.4092 22.1578 16.4455H25.2746C25.5826 16.4455 25.8363 16.3004 25.9088 15.974C25.9394 15.8325 25.9177 15.6847 25.8477 15.5581C25.7777 15.4314 25.6642 15.3344 25.5282 15.285C25.3665 15.2016 25.1831 15.17 25.0028 15.1943H21.9404C21.8198 15.2034 21.6986 15.2034 21.578 15.1943C21.3243 15.1943 21.2699 15.0312 21.4149 14.8317C21.6086 14.5476 21.8335 14.286 22.0854 14.052C22.484 13.6894 22.8283 13.2724 23.2632 12.9279C23.3641 12.9009 23.4703 12.9009 23.5712 12.9279C24.3867 12.9279 24.5135 12.7103 24.4954 11.9125C24.6679 11.6369 24.9041 11.4068 25.184 11.2416C27.429 9.22554 29.8974 7.47347 32.5409 6.01959C32.7519 5.82341 33.0322 5.71907 33.3201 5.72947C33.3201 8.44926 33.3201 11.1691 33.3201 13.9251C33.3201 14.324 33.3201 14.4509 33.8275 14.4509C34.7697 14.4509 35.6395 14.4509 36.6543 14.4509C36.7956 14.4052 36.9478 14.4052 37.0892 14.4509C36.9442 14.6322 36.7268 14.596 36.5274 14.596H33.9543C33.4832 14.596 33.465 14.596 33.4469 15.1218C33.4288 15.6476 33.4469 16.6086 33.4469 17.352C33.4469 18.0955 33.4469 19.3284 33.4469 20.3075V30.3526C33.4902 30.6312 33.4459 30.9163 33.3201 31.1686Z" fill="#1181B8"/>
<path d="M33.3019 5.74759C31.0791 6.89114 28.9784 8.25808 27.0322 9.82728C26.1624 10.4982 25.4013 11.2597 24.5134 11.8943C23.2334 11.6735 21.9315 11.6066 20.6356 11.6949C20.2435 11.7218 19.8499 11.7218 19.4578 11.6949C19.2041 11.5498 19.4578 11.3866 19.4578 11.2416C19.7296 10.752 20.0739 10.2987 20.3457 9.80915C20.6477 9.31055 20.7873 8.73029 20.7451 8.14877C20.7029 7.56724 20.481 7.01323 20.1101 6.56352C19.7155 6.14294 19.2328 5.81479 18.6967 5.60253L16.486 4.58715C16.486 4.58715 16.2505 4.58715 16.2686 4.3877H33.32L33.3019 5.74759Z" fill="#BFE5F8"/>
<path d="M33.3022 17.3703C33.3022 16.5181 33.3022 15.6659 33.3022 14.8318C33.3022 14.5598 33.3023 14.4873 33.6465 14.4873H37.0713C37.6567 14.4935 38.2347 14.6189 38.7701 14.8559C39.3054 15.0928 39.787 15.4364 40.1854 15.8656C40.5838 16.2948 40.8908 16.8006 41.0875 17.3523C41.2842 17.904 41.3666 18.4901 41.3297 19.0747C41.194 20.0524 40.9758 21.0168 40.6773 21.9577C39.9525 24.9071 39.2156 27.8687 38.4666 30.8423C37.5516 30.5057 36.5765 30.3636 35.6036 30.4253C35.4586 30.2077 35.6036 30.0082 35.6036 29.8088C36.4552 26.4362 37.2525 23.0637 38.1042 19.6912L38.2129 19.2197C38.2788 19.0133 38.293 18.7939 38.2543 18.5807C38.2156 18.3675 38.1252 18.167 37.991 17.9969C37.8568 17.8269 37.683 17.6924 37.4847 17.6052C37.2864 17.5181 37.0698 17.481 36.8539 17.4972C35.8391 17.4972 34.8244 17.4972 33.8096 17.4972C33.6313 17.5105 33.4534 17.466 33.3022 17.3703Z" fill="#10577C"/>
<path d="M18.697 5.49388C19.1554 5.61414 19.5774 5.84505 19.926 6.16636C20.2746 6.48766 20.5392 6.88956 20.6966 7.3369C20.8539 7.78424 20.8993 8.26336 20.8287 8.73232C20.7581 9.20127 20.5737 9.64576 20.2916 10.0269L19.3675 11.5681C19.2768 12.0577 18.8782 12.3478 18.6789 12.7648C18.1896 13.5989 17.646 14.3967 17.1386 15.2307C16.8487 15.6659 16.5769 16.1011 16.3051 16.5544C15.3084 18.1318 14.2756 19.6912 13.3333 21.3049C12.8564 22.1703 12.1803 22.9096 11.361 23.4614C10.5417 24.0132 9.60273 24.3617 8.62196 24.478C7.70813 24.5408 6.79183 24.3983 5.94013 24.061C5.12471 23.7165 4.34552 23.2994 3.5301 22.9731C3.43541 22.9469 3.35237 22.8893 3.29452 22.8099C3.20392 22.6286 3.00461 22.6104 2.85965 22.5198C1.72114 21.8582 0.844258 20.8254 0.375846 19.5942C-0.0925657 18.3631 -0.124078 17.0082 0.286538 15.7566L3.91064 3.17299C4.04631 2.45471 4.44008 1.81097 5.01763 1.36334C5.59518 0.915708 6.31653 0.695162 7.04549 0.74332C7.5504 0.798353 8.03811 0.958959 8.477 1.21474C8.477 1.48672 8.2958 1.68617 8.2052 1.92188C8.00587 2.44771 7.75218 2.93729 7.51661 3.44499C7.47164 3.60407 7.36802 3.74014 7.22668 3.82574C7.08027 3.85372 6.94605 3.92617 6.84229 4.03325C6.73853 4.14032 6.67027 4.27681 6.64683 4.4241C5.50524 8.44939 4.36364 12.4747 3.18581 16.5C2.94244 17.2029 2.98002 17.9727 3.29071 18.6486C3.60139 19.3244 4.16112 19.8539 4.85289 20.1264L6.93677 21.0692C7.4681 21.339 8.07653 21.4159 8.65821 21.2868C9.03466 21.2143 9.39118 21.0618 9.70376 20.8398C10.0163 20.6177 10.2777 20.3311 10.4703 19.9994C11.3763 18.6033 12.2823 17.1709 13.1521 15.7384L17.3379 9.12027C17.5916 8.72136 17.7909 8.39499 17.3379 8.01422C17.7366 7.36147 17.9903 6.63621 18.3346 5.96533C18.4433 5.80214 18.4795 5.58454 18.697 5.49388Z" fill="#82C7EA"/>
<path d="M8.7126 36.2095H29.8592C30.0438 36.1649 30.2364 36.1649 30.421 36.2095C30.4272 37.1021 30.6379 37.9814 31.0368 38.7798C31.4358 39.5782 32.0124 40.2744 32.7223 40.815C32.4075 41.2028 32.0051 41.5102 31.5483 41.712C31.0915 41.9137 30.5933 42.004 30.0948 41.9755H11.9743C11.545 42.0178 11.1117 41.9643 10.7056 41.8188C10.2994 41.6734 9.93055 41.4397 9.62554 41.1345C9.32052 40.8293 9.08692 40.4602 8.94159 40.0538C8.79626 39.6474 8.7428 39.2138 8.78507 38.7842C8.69446 37.9502 8.69448 37.0798 8.7126 36.2095Z" fill="#10577C"/>
<path d="M8.54929 29.9178V29.7184C8.54929 28.1409 8.54929 26.5816 8.54929 25.0041C8.513 24.7863 8.55131 24.5627 8.65801 24.3695C9.27641 24.2652 9.88326 24.1012 10.4701 23.8799C11.6908 23.2795 12.6969 22.3172 13.3512 21.1239C14.3116 19.5645 15.3082 18.0233 16.2867 16.4821C17.374 16.4821 18.4612 16.4821 19.5484 16.4821C19.623 16.4696 19.6994 16.4745 19.7717 16.4966C19.844 16.5186 19.9103 16.5571 19.9652 16.609C17.2425 19.7701 14.8162 23.1751 12.717 26.781C11.4486 28.9387 10.3432 31.1689 9.21974 33.3992C9.0949 33.758 8.92437 34.0993 8.71237 34.4145C8.76615 34.0357 8.76615 33.6511 8.71237 33.2723C8.67593 32.7955 8.67593 32.3166 8.71237 31.8398C8.71237 31.586 8.71237 31.3321 8.71237 31.0602C8.71237 30.7882 8.71236 30.5343 8.16875 30.5162H5.34195C5.19824 30.5432 5.05076 30.5432 4.90705 30.5162C4.81645 30.5162 4.70773 30.5162 4.74397 30.3349C4.91691 30.2275 5.12376 30.1887 5.32384 30.2261H8.02378C8.42243 30.2261 8.51303 30.2261 8.53115 29.9178" fill="#BFE5F8"/>
<path d="M8.60387 30.5159C8.63147 30.5756 8.64576 30.6405 8.64576 30.7063C8.64576 30.772 8.63147 30.837 8.60387 30.8967C8.60387 31.5857 8.60387 32.2747 8.60387 32.9456C8.60387 33.0725 8.60387 33.2176 8.60387 33.3263H5.16095C4.56103 33.3401 3.96481 33.229 3.41009 33C2.85537 32.771 2.35426 32.4291 1.93854 31.9961C1.52283 31.5631 1.20159 31.0483 0.995189 30.4845C0.788789 29.9207 0.701748 29.3201 0.739568 28.7208C0.748958 28.2571 0.853822 27.8004 1.04761 27.3791C1.79055 25.856 2.53348 24.3329 3.29454 22.8098C3.91898 23.0193 4.52506 23.2801 5.10659 23.5895C5.36753 23.7081 5.62162 23.8413 5.86765 23.9884C5.95826 24.1516 5.86766 24.2966 5.75893 24.4417C5.12472 25.6746 4.5811 26.9258 3.94688 28.0681C3.81732 28.2361 3.72944 28.4325 3.69046 28.6411C3.65147 28.8497 3.66251 29.0646 3.72264 29.2681C3.78278 29.4716 3.8903 29.658 4.03638 29.8119C4.18247 29.9657 4.36295 30.0827 4.563 30.1533C4.61763 30.1811 4.66202 30.2255 4.68983 30.2802C4.84847 30.334 5.02045 30.334 5.17909 30.2802H8.20522C8.31733 30.2453 8.43739 30.2453 8.54951 30.2802" fill="#10577C"/>
<path d="M7.1543 3.80748C7.58919 2.95528 7.89723 1.99427 8.38648 1.2146L9.03882 1.46845L10.2529 2.04868C10.4839 2.11005 10.6973 2.22434 10.8765 2.38251C11.0557 2.54068 11.1956 2.73839 11.2853 2.96001C11.3749 3.18163 11.4118 3.42109 11.393 3.65943C11.3742 3.89778 11.3003 4.12847 11.1771 4.33329C11.0508 4.58095 10.8498 4.78256 10.6026 4.90949C10.3554 5.03642 10.0746 5.08222 9.79991 5.04044C9.37596 4.97774 8.96911 4.82972 8.60394 4.60529C8.20529 4.46024 7.82475 4.24265 7.42609 4.06133C7.35361 4.00693 7.1543 3.97067 7.1543 3.80748Z" fill="#29AAE1"/>
<path d="M8.67633 4.53295L9.41928 4.84119C9.73448 4.97207 10.0845 4.99319 10.4131 4.90112C10.7417 4.80904 11.0299 4.60913 11.2313 4.3335H15.5984C15.5984 4.53295 15.3809 4.53296 15.2722 4.60549C15.0648 4.7222 14.8922 4.89203 14.772 5.09755C14.6519 5.30308 14.5886 5.53688 14.5886 5.77498C14.5886 6.01308 14.6519 6.24691 14.772 6.45244C14.8922 6.65796 15.0648 6.82779 15.2722 6.9445C15.7977 7.25274 16.3776 7.47033 16.9212 7.74231C17.0843 7.74231 17.2655 7.85111 17.3561 8.03243C17.8272 8.26814 17.8816 8.43132 17.6098 8.84836C15.2903 12.5473 12.9588 16.2462 10.6152 19.9451C10.4138 20.3163 10.1318 20.6376 9.79004 20.8855C9.44825 21.1333 9.05533 21.3015 8.64011 21.3775C8.49515 21.2325 8.53136 21.033 8.53136 20.8336C8.53136 15.5753 8.53136 10.3171 8.53136 5.05879C8.56761 4.87747 8.53137 4.678 8.67633 4.53295Z" fill="#BFE5F8"/>
<path d="M17.3923 8.05046L15.3085 7.08947C15.0291 6.97102 14.7982 6.76128 14.6533 6.49452C14.5085 6.22775 14.4584 5.91974 14.5111 5.62079C14.5359 5.34627 14.6424 5.0855 14.8169 4.87217C14.9913 4.65884 15.2257 4.50274 15.4897 4.42407H15.5984H16.2145C17.048 4.78671 17.8635 5.13123 18.6608 5.56639L17.6279 7.81474C17.6098 7.86913 17.5735 8.03233 17.3923 8.05046Z" fill="#29AAE1"/>
<path d="M36.2379 33.3264C36.6161 33.3263 36.9906 33.4017 37.3393 33.5482C37.6881 33.6946 38.0041 33.9092 38.269 34.1793C38.5339 34.4495 38.7423 34.7697 38.8821 35.1214C39.0218 35.4731 39.09 35.8491 39.0828 36.2275C39.1042 36.6172 39.0427 37.007 38.9022 37.3712C38.7618 37.7353 38.5456 38.0654 38.2681 38.3397C37.9906 38.614 37.658 38.8261 37.2924 38.9621C36.9268 39.0981 36.5365 39.1549 36.1473 39.1286C35.7624 39.1415 35.3789 39.0746 35.0211 38.932C34.6633 38.7893 34.3389 38.5742 34.0682 38.3C33.7976 38.0257 33.5866 37.6984 33.4486 37.3386C33.3105 36.9788 33.2484 36.5944 33.2661 36.2094C33.2804 35.4335 33.601 34.6948 34.1578 34.1546C34.7146 33.6144 35.4624 33.3167 36.2379 33.3264Z" fill="#1181B8"/>
<path d="M20.9799 33.3264H19.6752C19.0954 33.3264 18.8417 33.0544 18.8417 32.4923C18.8417 31.9302 18.8417 30.8786 18.8417 30.0626C18.8417 29.7906 18.8417 29.7 18.4793 29.7H16.1055C15.4894 29.7 15.2176 29.4462 15.1995 28.8297C15.1813 28.2132 15.1995 27.1071 15.1995 26.2549C15.1995 25.4027 15.4894 25.3664 16.1055 25.3483H18.4974C18.7511 25.3483 18.8417 25.3483 18.8417 25.0038C18.8417 24.2181 18.8417 23.4384 18.8417 22.6648C18.8417 21.9576 19.0591 21.7219 19.7658 21.7219H22.2665C22.9188 21.7219 23.1725 21.9758 23.1725 22.6467C23.1725 23.3176 23.1725 24.1516 23.1725 24.9132C23.1725 25.2395 23.1725 25.3664 23.5893 25.3483C24.3503 25.3483 25.0933 25.3483 25.8543 25.3483C26.6154 25.3483 26.7966 25.6203 26.7966 26.2549C26.7966 26.8895 26.7966 27.9593 26.7966 28.8115C26.7966 29.6637 26.5067 29.7 25.8906 29.7H23.5893C23.2812 29.7 23.1544 29.7 23.1725 30.0989C23.1725 30.8423 23.1725 31.5857 23.1725 32.311C23.1725 33.0363 22.9188 33.3264 22.1758 33.3264H20.9799Z" fill="#86D1F3"/>
<path d="M19.9294 16.6631H16.9033C16.6718 16.6763 16.4425 16.6125 16.251 16.4818L17.0664 15.1944C17.2511 15.0658 17.4784 15.0138 17.7006 15.0493C18.6479 14.9858 19.5983 14.9858 20.5455 15.0493C22.2126 15.2851 23.8616 15.0494 25.5106 15.2307C25.6813 15.2771 25.8298 15.383 25.9294 15.5292C26.0291 15.6755 26.0733 15.8525 26.0542 16.0285C26.0192 16.2108 25.9189 16.3741 25.7721 16.4877C25.6253 16.6012 25.442 16.6571 25.2569 16.645L19.9294 16.6631Z" fill="#FEFEFE"/>
<path d="M25.5101 15.2489C24.1873 15.2489 22.8464 15.2489 21.5236 15.2489C20.2008 15.2489 18.5518 15.2489 17.0659 15.2489C17.5733 14.4148 18.0988 13.5989 18.6062 12.783C18.9742 12.9312 19.3695 12.9992 19.7659 12.9824C20.7444 12.9824 21.741 12.9824 22.7195 12.9824C22.9188 12.9824 23.1363 12.9824 23.2994 13.1093C22.6062 13.7776 21.9527 14.486 21.3424 15.2308H25.0752C25.2745 15.1764 25.3832 15.122 25.5101 15.2489Z" fill="#BFE5F8"/>
<path d="M23.2997 13.055H19.3131C19.0413 13.055 18.7333 13.055 18.6064 12.7286L19.3675 11.5863H23.5896C23.7578 11.5734 23.9269 11.5958 24.086 11.652C24.2451 11.7082 24.3908 11.797 24.5137 11.9127C24.7312 12.6742 24.5137 13.055 23.6621 13.055H23.2997Z" fill="#FEFEFE"/>
<path d="M27.1774 11.5681C27.7935 11.5681 28.1015 11.7494 28.1921 12.1302C28.2161 12.2256 28.2205 12.3248 28.2049 12.4219C28.1894 12.519 28.1543 12.6119 28.1017 12.695C28.0492 12.7781 27.9803 12.8497 27.8993 12.9053C27.8183 12.9609 27.7268 12.9995 27.6304 13.0187C27.3234 13.0548 27.0132 13.0548 26.7062 13.0187C26.5188 13.0187 26.339 12.9442 26.2065 12.8115C26.074 12.6789 25.9995 12.4991 25.9995 12.3115C25.9995 12.124 26.074 11.9441 26.2065 11.8115C26.339 11.6789 26.5188 11.6044 26.7062 11.6044C26.8615 11.5756 27.0195 11.5635 27.1774 11.5681Z" fill="#FEFEFE"/>
<path d="M21.0164 38.4033H22.3936C22.487 38.3958 22.5809 38.4075 22.6696 38.4377C22.7583 38.4678 22.8399 38.5158 22.9095 38.5786C22.979 38.6414 23.035 38.7177 23.0741 38.8029C23.1131 38.8881 23.1344 38.9804 23.1366 39.0741C23.1523 39.1646 23.1482 39.2574 23.1246 39.3461C23.1011 39.4349 23.0585 39.5174 22.9999 39.5881C22.9413 39.6587 22.8681 39.7159 22.7854 39.7555C22.7026 39.7951 22.6122 39.8163 22.5204 39.8175C21.5138 39.9083 20.501 39.9083 19.4943 39.8175C19.3973 39.8201 19.301 39.8004 19.2128 39.7599C19.1246 39.7193 19.0469 39.6591 18.9856 39.5838C18.9243 39.5084 18.8812 39.4201 18.8594 39.3254C18.8376 39.2308 18.8379 39.1324 18.8601 39.0379C18.8785 38.8534 18.9685 38.6835 19.1109 38.5648C19.2532 38.4461 19.4365 38.3881 19.6212 38.4033H21.0164Z" fill="#46B9EA"/>
</svg>
