<svg width="491" height="681" viewBox="0 0 491 681" fill="none" xmlns="http://www.w3.org/2000/svg">
<g clip-path="url(#clip0_2785_21372)">
<path d="M367.187 66.9306C327.751 30.2492 284.119 16.7344 227.902 16.7344C181.754 16.7344 129.732 23.4914 81.0678 72.722C67.9579 85.8368 44.3967 113.658 28.002 157.686L140.291 190.594C140.712 189.082 141.105 187.779 141.48 186.63C159.1 132.572 198.535 124.849 217.833 124.849C262.303 124.849 294.187 158.635 294.187 209.797C294.187 262.89 263.142 295.71 237.97 315.982L212.799 336.254C162.455 376.795 163.294 427.957 163.294 472.363V496.495H274.889V471.398C274.889 433.749 298.384 411.548 321.037 393.207C373.06 350.732 428.437 310.19 428.437 216.554C428.437 166.359 415.012 111.335 367.187 66.9306Z" fill="#47B2E0"/>
<path d="M222.718 645.539C256.862 645.539 284.54 618.83 284.54 585.884C284.54 552.937 256.862 526.229 222.718 526.229C188.575 526.229 160.896 552.937 160.896 585.884C160.896 618.83 188.575 645.539 222.718 645.539Z" fill="#1181B8"/>
<path d="M83.3848 232.886C115.875 232.886 142.213 207.471 142.213 176.12C142.213 144.768 115.875 119.353 83.3848 119.353C50.8949 119.353 24.5566 144.768 24.5566 176.12C24.5566 207.471 50.8949 232.886 83.3848 232.886Z" fill="#3E94B9"/>
<path d="M367.188 66.9308C330.909 33.186 291.072 19.0572 241.16 17.0098L229.73 125.692C267.88 131.193 294.189 163.326 294.189 209.797C294.189 262.89 263.144 295.71 237.972 315.982L212.8 336.254C162.457 376.796 163.296 427.957 163.296 472.363V496.496H274.89V471.398C274.89 433.75 298.385 411.548 321.038 393.207C373.061 350.732 428.438 310.19 428.438 216.554C428.438 166.359 415.014 111.336 367.188 66.9308Z" fill="#42B8C1"/>
<path d="M289.894 92.8934C302.149 65.026 288.672 32.8489 259.792 21.0238C230.912 9.19876 197.567 22.2036 185.312 50.0709C173.057 77.9383 186.535 110.115 215.414 121.941C244.294 133.766 277.64 120.761 289.894 92.8934Z" fill="#3B939A"/>
<path d="M428.439 216.554C428.439 207.305 427.978 197.893 426.936 188.412L293.703 199.261C294.013 202.687 294.189 206.192 294.189 209.795C294.189 262.888 263.144 295.708 237.972 315.98L212.8 336.252C162.457 376.794 163.296 427.955 163.296 472.361V496.494H274.891V471.396C274.891 433.748 298.386 411.546 321.039 393.205C373.061 350.732 428.439 310.189 428.439 216.554Z" fill="#31D0BC"/>
<path d="M407.904 241.593C434.078 216.336 434.078 175.387 407.904 150.13C381.73 124.873 339.293 124.873 313.119 150.13C286.945 175.387 286.945 216.336 313.119 241.593C339.293 266.849 381.73 266.849 407.904 241.593Z" fill="#2EA697"/>
<path d="M233.568 319.529L212.8 336.255C162.457 376.797 163.296 427.959 163.296 472.364V496.497H274.89V471.399C274.89 439.107 292.177 418.183 311.391 401.308L233.568 319.529Z" fill="#61E7D2"/>
<path d="M328.804 373.45C336.156 343.405 316.875 313.298 285.738 306.203C254.602 299.109 223.401 317.714 216.049 347.759C208.696 377.804 227.977 407.912 259.114 415.006C290.25 422.1 321.451 403.495 328.804 373.45Z" fill="#52B7A7"/>
<path d="M81.875 178.012C81.875 181.238 81.6198 184.118 81.1094 186.652C80.6172 189.186 79.8151 191.337 78.7031 193.105C77.6094 194.874 76.1693 196.223 74.3828 197.152C72.5964 198.082 70.4271 198.547 67.875 198.547C64.6667 198.547 62.0326 197.736 59.9727 196.113C57.9128 194.473 56.3906 192.121 55.4062 189.059C54.4219 185.978 53.9297 182.296 53.9297 178.012C53.9297 173.691 54.3763 170 55.2695 166.938C56.181 163.857 57.6576 161.496 59.6992 159.855C61.7409 158.215 64.4661 157.395 67.875 157.395C71.0651 157.395 73.6901 158.215 75.75 159.855C77.8281 161.478 79.3685 163.829 80.3711 166.91C81.3737 169.973 81.875 173.673 81.875 178.012ZM62.3242 178.012C62.3242 181.056 62.4883 183.599 62.8164 185.641C63.1628 187.664 63.737 189.186 64.5391 190.207C65.3411 191.228 66.4531 191.738 67.875 191.738C69.2786 191.738 70.3815 191.237 71.1836 190.234C72.0039 189.214 72.5872 187.691 72.9336 185.668C73.2799 183.626 73.4531 181.074 73.4531 178.012C73.4531 174.967 73.2799 172.424 72.9336 170.383C72.5872 168.341 72.0039 166.81 71.1836 165.789C70.3815 164.75 69.2786 164.23 67.875 164.23C66.4531 164.23 65.3411 164.75 64.5391 165.789C63.737 166.81 63.1628 168.341 62.8164 170.383C62.4883 172.424 62.3242 174.967 62.3242 178.012ZM107.086 198H98.6367V174.867C98.6367 174.229 98.6458 173.445 98.6641 172.516C98.6823 171.568 98.7096 170.602 98.7461 169.617C98.7826 168.615 98.819 167.712 98.8555 166.91C98.6549 167.147 98.2448 167.557 97.625 168.141C97.0234 168.706 96.4583 169.216 95.9297 169.672L91.3359 173.363L87.2617 168.277L100.141 158.023H107.086V198Z" fill="#FDFDFD"/>
<path d="M235.875 73.0117C235.875 76.2383 235.62 79.1185 235.109 81.6523C234.617 84.1862 233.815 86.3372 232.703 88.1055C231.609 89.8737 230.169 91.2227 228.383 92.1523C226.596 93.082 224.427 93.5469 221.875 93.5469C218.667 93.5469 216.033 92.7357 213.973 91.1133C211.913 89.4727 210.391 87.1211 209.406 84.0586C208.422 80.9779 207.93 77.2956 207.93 73.0117C207.93 68.6914 208.376 65 209.27 61.9375C210.181 58.8568 211.658 56.4961 213.699 54.8555C215.741 53.2148 218.466 52.3945 221.875 52.3945C225.065 52.3945 227.69 53.2148 229.75 54.8555C231.828 56.4779 233.368 58.8294 234.371 61.9102C235.374 64.9727 235.875 68.6732 235.875 73.0117ZM216.324 73.0117C216.324 76.056 216.488 78.599 216.816 80.6406C217.163 82.6641 217.737 84.1862 218.539 85.207C219.341 86.2279 220.453 86.7383 221.875 86.7383C223.279 86.7383 224.382 86.237 225.184 85.2344C226.004 84.2135 226.587 82.6914 226.934 80.668C227.28 78.6263 227.453 76.0742 227.453 73.0117C227.453 69.9674 227.28 67.4245 226.934 65.3828C226.587 63.3411 226.004 61.8099 225.184 60.7891C224.382 59.75 223.279 59.2305 221.875 59.2305C220.453 59.2305 219.341 59.75 218.539 60.7891C217.737 61.8099 217.163 63.3411 216.816 65.3828C216.488 67.4245 216.324 69.9674 216.324 73.0117ZM268.141 93H240.195V87.1211L250.23 76.9766C252.254 74.8984 253.876 73.1667 255.098 71.7812C256.337 70.3776 257.23 69.1016 257.777 67.9531C258.342 66.8047 258.625 65.5742 258.625 64.2617C258.625 62.6758 258.178 61.4909 257.285 60.707C256.41 59.9049 255.234 59.5039 253.758 59.5039C252.208 59.5039 250.704 59.8594 249.246 60.5703C247.788 61.2812 246.266 62.293 244.68 63.6055L240.086 58.1641C241.234 57.1797 242.447 56.25 243.723 55.375C245.017 54.5 246.512 53.7982 248.207 53.2695C249.921 52.7227 251.971 52.4492 254.359 52.4492C256.984 52.4492 259.236 52.9232 261.113 53.8711C263.009 54.819 264.467 56.1133 265.488 57.7539C266.509 59.3763 267.02 61.2174 267.02 63.2773C267.02 65.4831 266.582 67.4974 265.707 69.3203C264.832 71.1432 263.556 72.9479 261.879 74.7344C260.22 76.5208 258.215 78.4987 255.863 80.668L250.723 85.5078V85.8906H268.141V93Z" fill="#FDFDFD"/>
<path d="M359.875 194.012C359.875 197.238 359.62 200.118 359.109 202.652C358.617 205.186 357.815 207.337 356.703 209.105C355.609 210.874 354.169 212.223 352.383 213.152C350.596 214.082 348.427 214.547 345.875 214.547C342.667 214.547 340.033 213.736 337.973 212.113C335.913 210.473 334.391 208.121 333.406 205.059C332.422 201.978 331.93 198.296 331.93 194.012C331.93 189.691 332.376 186 333.27 182.938C334.181 179.857 335.658 177.496 337.699 175.855C339.741 174.215 342.466 173.395 345.875 173.395C349.065 173.395 351.69 174.215 353.75 175.855C355.828 177.478 357.368 179.829 358.371 182.91C359.374 185.973 359.875 189.673 359.875 194.012ZM340.324 194.012C340.324 197.056 340.488 199.599 340.816 201.641C341.163 203.664 341.737 205.186 342.539 206.207C343.341 207.228 344.453 207.738 345.875 207.738C347.279 207.738 348.382 207.237 349.184 206.234C350.004 205.214 350.587 203.691 350.934 201.668C351.28 199.626 351.453 197.074 351.453 194.012C351.453 190.967 351.28 188.424 350.934 186.383C350.587 184.341 350.004 182.81 349.184 181.789C348.382 180.75 347.279 180.23 345.875 180.23C344.453 180.23 343.341 180.75 342.539 181.789C341.737 182.81 341.163 184.341 340.816 186.383C340.488 188.424 340.324 190.967 340.324 194.012ZM390.582 182.965C390.582 184.806 390.199 186.401 389.434 187.75C388.668 189.099 387.629 190.202 386.316 191.059C385.022 191.915 383.564 192.544 381.941 192.945V193.109C385.15 193.51 387.583 194.495 389.242 196.062C390.919 197.63 391.758 199.727 391.758 202.352C391.758 204.685 391.184 206.772 390.035 208.613C388.905 210.454 387.155 211.904 384.785 212.961C382.415 214.018 379.362 214.547 375.625 214.547C373.419 214.547 371.359 214.365 369.445 214C367.549 213.654 365.763 213.116 364.086 212.387V205.195C365.799 206.07 367.595 206.736 369.473 207.191C371.35 207.629 373.1 207.848 374.723 207.848C377.749 207.848 379.863 207.328 381.066 206.289C382.288 205.232 382.898 203.755 382.898 201.859C382.898 200.747 382.616 199.809 382.051 199.043C381.486 198.277 380.501 197.694 379.098 197.293C377.712 196.892 375.771 196.691 373.273 196.691H370.238V190.211H373.328C375.789 190.211 377.658 189.983 378.934 189.527C380.228 189.053 381.103 188.415 381.559 187.613C382.033 186.793 382.27 185.863 382.27 184.824C382.27 183.402 381.832 182.29 380.957 181.488C380.082 180.686 378.624 180.285 376.582 180.285C375.306 180.285 374.139 180.449 373.082 180.777C372.043 181.087 371.104 181.47 370.266 181.926C369.427 182.363 368.689 182.792 368.051 183.211L364.141 177.387C365.708 176.257 367.54 175.318 369.637 174.57C371.751 173.823 374.267 173.449 377.184 173.449C381.303 173.449 384.566 174.279 386.973 175.938C389.379 177.596 390.582 179.939 390.582 182.965Z" fill="#FDFDFD"/>
<path d="M267.875 363.012C267.875 366.238 267.62 369.118 267.109 371.652C266.617 374.186 265.815 376.337 264.703 378.105C263.609 379.874 262.169 381.223 260.383 382.152C258.596 383.082 256.427 383.547 253.875 383.547C250.667 383.547 248.033 382.736 245.973 381.113C243.913 379.473 242.391 377.121 241.406 374.059C240.422 370.978 239.93 367.296 239.93 363.012C239.93 358.691 240.376 355 241.27 351.938C242.181 348.857 243.658 346.496 245.699 344.855C247.741 343.215 250.466 342.395 253.875 342.395C257.065 342.395 259.69 343.215 261.75 344.855C263.828 346.478 265.368 348.829 266.371 351.91C267.374 354.973 267.875 358.673 267.875 363.012ZM248.324 363.012C248.324 366.056 248.488 368.599 248.816 370.641C249.163 372.664 249.737 374.186 250.539 375.207C251.341 376.228 252.453 376.738 253.875 376.738C255.279 376.738 256.382 376.237 257.184 375.234C258.004 374.214 258.587 372.691 258.934 370.668C259.28 368.626 259.453 366.074 259.453 363.012C259.453 359.967 259.28 357.424 258.934 355.383C258.587 353.341 258.004 351.81 257.184 350.789C256.382 349.75 255.279 349.23 253.875 349.23C252.453 349.23 251.341 349.75 250.539 350.789C249.737 351.81 249.163 353.341 248.816 355.383C248.488 357.424 248.324 359.967 248.324 363.012ZM301.043 374.715H296.23V383H287.973V374.715H270.91V368.836L288.438 343.023H296.23V368.152H301.043V374.715ZM287.973 368.152V361.371C287.973 360.733 287.982 359.977 288 359.102C288.036 358.227 288.073 357.352 288.109 356.477C288.146 355.602 288.182 354.827 288.219 354.152C288.273 353.46 288.31 352.977 288.328 352.703H288.109C287.763 353.451 287.398 354.18 287.016 354.891C286.633 355.583 286.186 356.312 285.676 357.078L278.348 368.152H287.973Z" fill="#FDFDFD"/>
<path d="M221.875 588.012C221.875 591.238 221.62 594.118 221.109 596.652C220.617 599.186 219.815 601.337 218.703 603.105C217.609 604.874 216.169 606.223 214.383 607.152C212.596 608.082 210.427 608.547 207.875 608.547C204.667 608.547 202.033 607.736 199.973 606.113C197.913 604.473 196.391 602.121 195.406 599.059C194.422 595.978 193.93 592.296 193.93 588.012C193.93 583.691 194.376 580 195.27 576.938C196.181 573.857 197.658 571.496 199.699 569.855C201.741 568.215 204.466 567.395 207.875 567.395C211.065 567.395 213.69 568.215 215.75 569.855C217.828 571.478 219.368 573.829 220.371 576.91C221.374 579.973 221.875 583.673 221.875 588.012ZM202.324 588.012C202.324 591.056 202.488 593.599 202.816 595.641C203.163 597.664 203.737 599.186 204.539 600.207C205.341 601.228 206.453 601.738 207.875 601.738C209.279 601.738 210.382 601.237 211.184 600.234C212.004 599.214 212.587 597.691 212.934 595.668C213.28 593.626 213.453 591.074 213.453 588.012C213.453 584.967 213.28 582.424 212.934 580.383C212.587 578.341 212.004 576.81 211.184 575.789C210.382 574.75 209.279 574.23 207.875 574.23C206.453 574.23 205.341 574.75 204.539 575.789C203.737 576.81 203.163 578.341 202.816 580.383C202.488 582.424 202.324 584.967 202.324 588.012ZM240.742 582.461C243.185 582.461 245.354 582.926 247.25 583.855C249.164 584.785 250.668 586.152 251.762 587.957C252.855 589.762 253.402 591.986 253.402 594.629C253.402 597.509 252.801 599.997 251.598 602.094C250.413 604.172 248.635 605.767 246.266 606.879C243.914 607.991 240.979 608.547 237.461 608.547C235.365 608.547 233.387 608.365 231.527 608C229.686 607.654 228.073 607.116 226.688 606.387V599.086C228.073 599.815 229.732 600.435 231.664 600.945C233.615 601.438 235.447 601.684 237.16 601.684C238.837 601.684 240.25 601.465 241.398 601.027C242.547 600.572 243.413 599.879 243.996 598.949C244.598 598.001 244.898 596.798 244.898 595.34C244.898 593.389 244.242 591.895 242.93 590.855C241.617 589.816 239.603 589.297 236.887 589.297C235.848 589.297 234.763 589.397 233.633 589.598C232.521 589.798 231.591 589.999 230.844 590.199L227.48 588.395L228.984 568.023H250.668V575.188H236.395L235.656 583.035C236.276 582.908 236.951 582.78 237.68 582.652C238.409 582.525 239.43 582.461 240.742 582.461Z" fill="#FDFDFD"/>
</g>
<defs>
<clipPath id="clip0_2785_21372">
<rect width="491" height="681" fill="white"/>
</clipPath>
</defs>
</svg>
