<svg width="64" height="68" viewBox="0 0 64 68" fill="none" xmlns="http://www.w3.org/2000/svg">
<rect width="64" height="68" rx="12" fill="#46B9EA"/>
<path d="M20.0156 48.36C16.7356 48.36 14.229 47.12 12.4956 44.64C10.789 42.1333 9.93563 38.5467 9.93563 33.88C9.93563 30.7067 10.3223 28.0533 11.0956 25.92C11.869 23.7867 13.0023 22.1733 14.4956 21.08C15.989 19.9867 17.829 19.44 20.0156 19.44C23.3223 19.44 25.829 20.6667 27.5356 23.12C29.2423 25.5467 30.0956 29.12 30.0956 33.84C30.0956 36.96 29.709 39.6 28.9356 41.76C28.1623 43.92 27.029 45.56 25.5356 46.68C24.0423 47.8 22.2023 48.36 20.0156 48.36ZM20.0156 44.92C22.069 44.92 23.5756 44.0267 24.5356 42.24C25.5223 40.4267 26.0156 37.6267 26.0156 33.84C26.0156 30.0267 25.5223 27.2533 24.5356 25.52C23.5756 23.76 22.069 22.88 20.0156 22.88C17.989 22.88 16.4823 23.76 15.4956 25.52C14.509 27.2533 14.0156 30.0267 14.0156 33.84C14.0156 37.6267 14.509 40.4267 15.4956 42.24C16.4823 44.0267 17.989 44.92 20.0156 44.92ZM38.2 48C37.64 48 37.2 47.84 36.88 47.52C36.56 47.2 36.4 46.7733 36.4 46.24C36.4 45.68 36.56 45.2533 36.88 44.96C37.2 44.6667 37.64 44.52 38.2 44.52H43.08V23.24H45.16L39.32 26.96C38.8933 27.2 38.4933 27.2933 38.12 27.24C37.7733 27.1867 37.4667 27.04 37.2 26.8C36.96 26.56 36.7867 26.2667 36.68 25.92C36.6 25.5733 36.6267 25.2133 36.76 24.84C36.92 24.4667 37.2 24.16 37.6 23.92L43.12 20.44C43.5733 20.1733 44 19.96 44.4 19.8C44.8267 19.6133 45.2267 19.52 45.6 19.52C46.0533 19.52 46.4267 19.6533 46.72 19.92C47.04 20.16 47.2 20.5733 47.2 21.16V44.52H51.68C52.2667 44.52 52.72 44.6667 53.04 44.96C53.36 45.2533 53.52 45.68 53.52 46.24C53.52 46.8 53.36 47.24 53.04 47.56C52.72 47.8533 52.2667 48 51.68 48H38.2Z" fill="white"/>
</svg>
