<svg width="64" height="69" viewBox="0 0 64 69" fill="none" xmlns="http://www.w3.org/2000/svg">
<rect y="0.5" width="64" height="68" rx="12" fill="#8572CE"/>
<path d="M20.0156 48.86C16.7356 48.86 14.229 47.62 12.4956 45.14C10.789 42.6333 9.93563 39.0467 9.93563 34.38C9.93563 31.2067 10.3223 28.5533 11.0956 26.42C11.869 24.2867 13.0023 22.6733 14.4956 21.58C15.989 20.4867 17.829 19.94 20.0156 19.94C23.3223 19.94 25.829 21.1667 27.5356 23.62C29.2423 26.0467 30.0956 29.62 30.0956 34.34C30.0956 37.46 29.709 40.1 28.9356 42.26C28.1623 44.42 27.029 46.06 25.5356 47.18C24.0423 48.3 22.2023 48.86 20.0156 48.86ZM20.0156 45.42C22.069 45.42 23.5756 44.5267 24.5356 42.74C25.5223 40.9267 26.0156 38.1267 26.0156 34.34C26.0156 30.5267 25.5223 27.7533 24.5356 26.02C23.5756 24.26 22.069 23.38 20.0156 23.38C17.989 23.38 16.4823 24.26 15.4956 26.02C14.509 27.7533 14.0156 30.5267 14.0156 34.34C14.0156 38.1267 14.509 40.9267 15.4956 42.74C16.4823 44.5267 17.989 45.42 20.0156 45.42ZM37.24 48.5C36.52 48.5 36 48.34 35.68 48.02C35.36 47.6733 35.2 47.2067 35.2 46.62C35.2 46.2467 35.2933 45.8867 35.48 45.54C35.6667 45.1933 35.9333 44.8333 36.28 44.46L44.8 35.34C46.1067 33.9533 47.04 32.6867 47.6 31.54C48.1867 30.3667 48.48 29.1933 48.48 28.02C48.48 26.5267 48.0267 25.3933 47.12 24.62C46.2133 23.8467 44.88 23.46 43.12 23.46C42.0533 23.46 41.0267 23.62 40.04 23.94C39.0533 24.26 38.0667 24.78 37.08 25.5C36.68 25.7667 36.3067 25.8867 35.96 25.86C35.6133 25.8333 35.3067 25.7 35.04 25.46C34.8 25.22 34.64 24.9267 34.56 24.58C34.48 24.2333 34.4933 23.8733 34.6 23.5C34.7067 23.1267 34.96 22.8067 35.36 22.54C36.4533 21.7133 37.72 21.0733 39.16 20.62C40.6 20.1667 42.0667 19.94 43.56 19.94C45.5067 19.94 47.1467 20.2467 48.48 20.86C49.84 21.4467 50.8667 22.3133 51.56 23.46C52.2533 24.6067 52.6 26.0067 52.6 27.66C52.6 28.78 52.4133 29.8733 52.04 30.94C51.6933 32.0067 51.1467 33.1 50.4 34.22C49.68 35.3133 48.7333 36.4733 47.56 37.7L39.48 46.18V45.02H52.2C52.7867 45.02 53.24 45.1667 53.56 45.46C53.88 45.7533 54.04 46.18 54.04 46.74C54.04 47.3 53.88 47.74 53.56 48.06C53.24 48.3533 52.7867 48.5 52.2 48.5H37.24Z" fill="white"/>
</svg>
