<svg width="64" height="68" viewBox="0 0 64 68" fill="none" xmlns="http://www.w3.org/2000/svg">
<rect width="64" height="68" rx="12" fill="#DE677E"/>
<path d="M20.0156 48.36C16.7356 48.36 14.229 47.12 12.4956 44.64C10.789 42.1333 9.93563 38.5467 9.93563 33.88C9.93563 30.7067 10.3223 28.0533 11.0956 25.92C11.869 23.7867 13.0023 22.1733 14.4956 21.08C15.989 19.9867 17.829 19.44 20.0156 19.44C23.3223 19.44 25.829 20.6667 27.5356 23.12C29.2423 25.5467 30.0956 29.12 30.0956 33.84C30.0956 36.96 29.709 39.6 28.9356 41.76C28.1623 43.92 27.029 45.56 25.5356 46.68C24.0423 47.8 22.2023 48.36 20.0156 48.36ZM20.0156 44.92C22.069 44.92 23.5756 44.0267 24.5356 42.24C25.5223 40.4267 26.0156 37.6267 26.0156 33.84C26.0156 30.0267 25.5223 27.2533 24.5356 25.52C23.5756 23.76 22.069 22.88 20.0156 22.88C17.989 22.88 16.4823 23.76 15.4956 25.52C14.509 27.2533 14.0156 30.0267 14.0156 33.84C14.0156 37.6267 14.509 40.4267 15.4956 42.24C16.4823 44.0267 17.989 44.92 20.0156 44.92ZM43.56 48.36C42.0667 48.36 40.5467 48.16 39 47.76C37.4533 47.3333 36.1067 46.7067 34.96 45.88C34.5333 45.6133 34.24 45.2933 34.08 44.92C33.9467 44.52 33.92 44.16 34 43.84C34.08 43.4933 34.24 43.2 34.48 42.96C34.7467 42.72 35.0667 42.5867 35.44 42.56C35.8133 42.5067 36.2267 42.6133 36.68 42.88C37.8267 43.5733 38.9467 44.08 40.04 44.4C41.1333 44.6933 42.2667 44.84 43.44 44.84C44.72 44.84 45.8 44.6533 46.68 44.28C47.56 43.9067 48.2133 43.36 48.64 42.64C49.0933 41.92 49.32 41.0533 49.32 40.04C49.32 38.52 48.8133 37.3867 47.8 36.64C46.8133 35.8667 45.3733 35.48 43.48 35.48H40.76C40.1467 35.48 39.68 35.3333 39.36 35.04C39.04 34.72 38.88 34.28 38.88 33.72C38.88 33.1867 39.04 32.7733 39.36 32.48C39.68 32.16 40.1467 32 40.76 32H43.08C44.2267 32 45.2 31.8133 46 31.44C46.8 31.04 47.4133 30.4933 47.84 29.8C48.2933 29.08 48.52 28.2133 48.52 27.2C48.52 25.84 48.0667 24.8 47.16 24.08C46.28 23.3333 44.9867 22.96 43.28 22.96C42.1867 22.96 41.1467 23.1067 40.16 23.4C39.2 23.6933 38.2 24.2133 37.16 24.96C36.76 25.2267 36.3733 25.3467 36 25.32C35.6533 25.2667 35.3467 25.1333 35.08 24.92C34.84 24.68 34.6667 24.3867 34.56 24.04C34.48 23.6933 34.5067 23.3333 34.64 22.96C34.7733 22.5867 35.04 22.2667 35.44 22C36.56 21.1733 37.8267 20.5467 39.24 20.12C40.6533 19.6667 42.1067 19.44 43.6 19.44C45.4667 19.44 47.0667 19.7333 48.4 20.32C49.76 20.9067 50.7867 21.7467 51.48 22.84C52.2 23.9333 52.56 25.24 52.56 26.76C52.56 27.9067 52.3467 28.9467 51.92 29.88C51.4933 30.8133 50.88 31.6133 50.08 32.28C49.3067 32.92 48.36 33.3733 47.24 33.64V33.2C49.1867 33.52 50.6933 34.32 51.76 35.6C52.8267 36.8533 53.36 38.4267 53.36 40.32C53.36 41.9733 52.96 43.4133 52.16 44.64C51.3867 45.84 50.2667 46.76 48.8 47.4C47.3333 48.04 45.5867 48.36 43.56 48.36Z" fill="white"/>
</svg>
