<svg width="64" height="69" viewBox="0 0 64 69" fill="none" xmlns="http://www.w3.org/2000/svg">
<rect y="0.5" width="64" height="68" rx="12" fill="#FF8959"/>
<path d="M20.0156 48.86C16.7356 48.86 14.229 47.62 12.4956 45.14C10.789 42.6333 9.93563 39.0467 9.93563 34.38C9.93563 31.2067 10.3223 28.5533 11.0956 26.42C11.869 24.2867 13.0023 22.6733 14.4956 21.58C15.989 20.4867 17.829 19.94 20.0156 19.94C23.3223 19.94 25.829 21.1667 27.5356 23.62C29.2423 26.0467 30.0956 29.62 30.0956 34.34C30.0956 37.46 29.709 40.1 28.9356 42.26C28.1623 44.42 27.029 46.06 25.5356 47.18C24.0423 48.3 22.2023 48.86 20.0156 48.86ZM20.0156 45.42C22.069 45.42 23.5756 44.5267 24.5356 42.74C25.5223 40.9267 26.0156 38.1267 26.0156 34.34C26.0156 30.5267 25.5223 27.7533 24.5356 26.02C23.5756 24.26 22.069 23.38 20.0156 23.38C17.989 23.38 16.4823 24.26 15.4956 26.02C14.509 27.7533 14.0156 30.5267 14.0156 34.34C14.0156 38.1267 14.509 40.9267 15.4956 42.74C16.4823 44.5267 17.989 45.42 20.0156 45.42ZM48.64 48.78C48 48.78 47.4933 48.6067 47.12 48.26C46.7467 47.8867 46.56 47.38 46.56 46.74V42.78H35.84C35.1733 42.78 34.64 42.6333 34.24 42.34C33.84 42.0467 33.64 41.5933 33.64 40.98C33.64 40.6333 33.72 40.26 33.88 39.86C34.0667 39.46 34.3867 38.94 34.84 38.3L46.48 21.38C46.7733 20.9267 47.1067 20.5933 47.48 20.38C47.8533 20.14 48.28 20.02 48.76 20.02C49.32 20.02 49.7733 20.1933 50.12 20.54C50.4933 20.86 50.68 21.3667 50.68 22.06V39.3H53.2C53.84 39.3 54.3067 39.4467 54.6 39.74C54.92 40.0333 55.08 40.46 55.08 41.02C55.08 41.6067 54.92 42.0467 54.6 42.34C54.3067 42.6333 53.84 42.78 53.2 42.78H50.68V46.74C50.68 47.38 50.4933 47.8867 50.12 48.26C49.7733 48.6067 49.28 48.78 48.64 48.78ZM46.56 39.3V25.18H47.64L37.2 40.42V39.3H46.56Z" fill="white"/>
</svg>
