<svg width="762" height="104" viewBox="0 0 762 104" fill="none" xmlns="http://www.w3.org/2000/svg">
<path d="M98.7575 83.1667V19.6111C99.0804 10.6157 93.8584 2.5 84.6726 2.5H19.1469C9.34867 2.5 2 8.61111 2 19.6111V81.3333C2 92.3333 10.5735 101.5 22.2088 101.5H760" stroke="#8572CE" stroke-width="4" stroke-linecap="round"/>
<rect x="18" y="17.5" width="64" height="68" rx="12" fill="#8572CE"/>
<path d="M38.0156 65.86C34.7356 65.86 32.229 64.62 30.4956 62.14C28.789 59.6333 27.9356 56.0467 27.9356 51.38C27.9356 48.2067 28.3223 45.5533 29.0956 43.42C29.869 41.2867 31.0023 39.6733 32.4956 38.58C33.989 37.4867 35.829 36.94 38.0156 36.94C41.3223 36.94 43.829 38.1667 45.5356 40.62C47.2423 43.0467 48.0956 46.62 48.0956 51.34C48.0956 54.46 47.709 57.1 46.9356 59.26C46.1623 61.42 45.029 63.06 43.5356 64.18C42.0423 65.3 40.2023 65.86 38.0156 65.86ZM38.0156 62.42C40.069 62.42 41.5756 61.5267 42.5356 59.74C43.5223 57.9267 44.0156 55.1267 44.0156 51.34C44.0156 47.5267 43.5223 44.7533 42.5356 43.02C41.5756 41.26 40.069 40.38 38.0156 40.38C35.989 40.38 34.4823 41.26 33.4956 43.02C32.509 44.7533 32.0156 47.5267 32.0156 51.34C32.0156 55.1267 32.509 57.9267 33.4956 59.74C34.4823 61.5267 35.989 62.42 38.0156 62.42ZM55.24 65.5C54.52 65.5 54 65.34 53.68 65.02C53.36 64.6733 53.2 64.2067 53.2 63.62C53.2 63.2467 53.2933 62.8867 53.48 62.54C53.6667 62.1933 53.9333 61.8333 54.28 61.46L62.8 52.34C64.1067 50.9533 65.04 49.6867 65.6 48.54C66.1867 47.3667 66.48 46.1933 66.48 45.02C66.48 43.5267 66.0267 42.3933 65.12 41.62C64.2133 40.8467 62.88 40.46 61.12 40.46C60.0533 40.46 59.0267 40.62 58.04 40.94C57.0533 41.26 56.0667 41.78 55.08 42.5C54.68 42.7667 54.3067 42.8867 53.96 42.86C53.6133 42.8333 53.3067 42.7 53.04 42.46C52.8 42.22 52.64 41.9267 52.56 41.58C52.48 41.2333 52.4933 40.8733 52.6 40.5C52.7067 40.1267 52.96 39.8067 53.36 39.54C54.4533 38.7133 55.72 38.0733 57.16 37.62C58.6 37.1667 60.0667 36.94 61.56 36.94C63.5067 36.94 65.1467 37.2467 66.48 37.86C67.84 38.4467 68.8667 39.3133 69.56 40.46C70.2533 41.6067 70.6 43.0067 70.6 44.66C70.6 45.78 70.4133 46.8733 70.04 47.94C69.6933 49.0067 69.1467 50.1 68.4 51.22C67.68 52.3133 66.7333 53.4733 65.56 54.7L57.48 63.18V62.02H70.2C70.7867 62.02 71.24 62.1667 71.56 62.46C71.88 62.7533 72.04 63.18 72.04 63.74C72.04 64.3 71.88 64.74 71.56 65.06C71.24 65.3533 70.7867 65.5 70.2 65.5H55.24Z" fill="white"/>
</svg>
    