<svg width="762" height="103" viewBox="0 0 762 103" fill="none" xmlns="http://www.w3.org/2000/svg">
<path d="M98.7575 82.6667V19.1111C99.0804 10.1157 93.8584 2 84.6726 2H19.1469C9.34867 2 2 8.11111 2 19.1111V80.8333C2 91.8333 10.5735 101 22.2088 101H760" stroke="#DE677E" stroke-width="4" stroke-linecap="round"/>
<rect x="18" y="17" width="64" height="68" rx="12" fill="#DE677E"/>
<path d="M38.0156 65.36C34.7356 65.36 32.229 64.12 30.4956 61.64C28.789 59.1333 27.9356 55.5467 27.9356 50.88C27.9356 47.7067 28.3223 45.0533 29.0956 42.92C29.869 40.7867 31.0023 39.1733 32.4956 38.08C33.989 36.9867 35.829 36.44 38.0156 36.44C41.3223 36.44 43.829 37.6667 45.5356 40.12C47.2423 42.5467 48.0956 46.12 48.0956 50.84C48.0956 53.96 47.709 56.6 46.9356 58.76C46.1623 60.92 45.029 62.56 43.5356 63.68C42.0423 64.8 40.2023 65.36 38.0156 65.36ZM38.0156 61.92C40.069 61.92 41.5756 61.0267 42.5356 59.24C43.5223 57.4267 44.0156 54.6267 44.0156 50.84C44.0156 47.0267 43.5223 44.2533 42.5356 42.52C41.5756 40.76 40.069 39.88 38.0156 39.88C35.989 39.88 34.4823 40.76 33.4956 42.52C32.509 44.2533 32.0156 47.0267 32.0156 50.84C32.0156 54.6267 32.509 57.4267 33.4956 59.24C34.4823 61.0267 35.989 61.92 38.0156 61.92ZM61.56 65.36C60.0667 65.36 58.5467 65.16 57 64.76C55.4533 64.3333 54.1067 63.7067 52.96 62.88C52.5333 62.6133 52.24 62.2933 52.08 61.92C51.9467 61.52 51.92 61.16 52 60.84C52.08 60.4933 52.24 60.2 52.48 59.96C52.7467 59.72 53.0667 59.5867 53.44 59.56C53.8133 59.5067 54.2267 59.6133 54.68 59.88C55.8267 60.5733 56.9467 61.08 58.04 61.4C59.1333 61.6933 60.2667 61.84 61.44 61.84C62.72 61.84 63.8 61.6533 64.68 61.28C65.56 60.9067 66.2133 60.36 66.64 59.64C67.0933 58.92 67.32 58.0533 67.32 57.04C67.32 55.52 66.8133 54.3867 65.8 53.64C64.8133 52.8667 63.3733 52.48 61.48 52.48H58.76C58.1467 52.48 57.68 52.3333 57.36 52.04C57.04 51.72 56.88 51.28 56.88 50.72C56.88 50.1867 57.04 49.7733 57.36 49.48C57.68 49.16 58.1467 49 58.76 49H61.08C62.2267 49 63.2 48.8133 64 48.44C64.8 48.04 65.4133 47.4933 65.84 46.8C66.2933 46.08 66.52 45.2133 66.52 44.2C66.52 42.84 66.0667 41.8 65.16 41.08C64.28 40.3333 62.9867 39.96 61.28 39.96C60.1867 39.96 59.1467 40.1067 58.16 40.4C57.2 40.6933 56.2 41.2133 55.16 41.96C54.76 42.2267 54.3733 42.3467 54 42.32C53.6533 42.2667 53.3467 42.1333 53.08 41.92C52.84 41.68 52.6667 41.3867 52.56 41.04C52.48 40.6933 52.5067 40.3333 52.64 39.96C52.7733 39.5867 53.04 39.2667 53.44 39C54.56 38.1733 55.8267 37.5467 57.24 37.12C58.6533 36.6667 60.1067 36.44 61.6 36.44C63.4667 36.44 65.0667 36.7333 66.4 37.32C67.76 37.9067 68.7867 38.7467 69.48 39.84C70.2 40.9333 70.56 42.24 70.56 43.76C70.56 44.9067 70.3467 45.9467 69.92 46.88C69.4933 47.8133 68.88 48.6133 68.08 49.28C67.3067 49.92 66.36 50.3733 65.24 50.64V50.2C67.1867 50.52 68.6933 51.32 69.76 52.6C70.8267 53.8533 71.36 55.4267 71.36 57.32C71.36 58.9733 70.96 60.4133 70.16 61.64C69.3867 62.84 68.2667 63.76 66.8 64.4C65.3333 65.04 63.5867 65.36 61.56 65.36Z" fill="white"/>
</svg>
