<svg width="762" height="104" viewBox="0 0 762 104" fill="none" xmlns="http://www.w3.org/2000/svg">
<path d="M98.7575 83.1667V19.6111C99.0804 10.6157 93.8584 2.5 84.6726 2.5H19.1469C9.34867 2.5 2 8.61111 2 19.6111V81.3333C2 92.3333 10.5735 101.5 22.2088 101.5H760" stroke="#FF8959" stroke-width="4" stroke-linecap="round"/>
<rect x="18" y="17.5" width="64" height="68" rx="12" fill="#FF8959"/>
<path d="M38.0156 65.86C34.7356 65.86 32.229 64.62 30.4956 62.14C28.789 59.6333 27.9356 56.0467 27.9356 51.38C27.9356 48.2067 28.3223 45.5533 29.0956 43.42C29.869 41.2867 31.0023 39.6733 32.4956 38.58C33.989 37.4867 35.829 36.94 38.0156 36.94C41.3223 36.94 43.829 38.1667 45.5356 40.62C47.2423 43.0467 48.0956 46.62 48.0956 51.34C48.0956 54.46 47.709 57.1 46.9356 59.26C46.1623 61.42 45.029 63.06 43.5356 64.18C42.0423 65.3 40.2023 65.86 38.0156 65.86ZM38.0156 62.42C40.069 62.42 41.5756 61.5267 42.5356 59.74C43.5223 57.9267 44.0156 55.1267 44.0156 51.34C44.0156 47.5267 43.5223 44.7533 42.5356 43.02C41.5756 41.26 40.069 40.38 38.0156 40.38C35.989 40.38 34.4823 41.26 33.4956 43.02C32.509 44.7533 32.0156 47.5267 32.0156 51.34C32.0156 55.1267 32.509 57.9267 33.4956 59.74C34.4823 61.5267 35.989 62.42 38.0156 62.42ZM66.64 65.78C66 65.78 65.4933 65.6067 65.12 65.26C64.7467 64.8867 64.56 64.38 64.56 63.74V59.78H53.84C53.1733 59.78 52.64 59.6333 52.24 59.34C51.84 59.0467 51.64 58.5933 51.64 57.98C51.64 57.6333 51.72 57.26 51.88 56.86C52.0667 56.46 52.3867 55.94 52.84 55.3L64.48 38.38C64.7733 37.9267 65.1067 37.5933 65.48 37.38C65.8533 37.14 66.28 37.02 66.76 37.02C67.32 37.02 67.7733 37.1933 68.12 37.54C68.4933 37.86 68.68 38.3667 68.68 39.06V56.3H71.2C71.84 56.3 72.3067 56.4467 72.6 56.74C72.92 57.0333 73.08 57.46 73.08 58.02C73.08 58.6067 72.92 59.0467 72.6 59.34C72.3067 59.6333 71.84 59.78 71.2 59.78H68.68V63.74C68.68 64.38 68.4933 64.8867 68.12 65.26C67.7733 65.6067 67.28 65.78 66.64 65.78ZM64.56 56.3V42.18H65.64L55.2 57.42V56.3H64.56Z" fill="white"/>
</svg>
