<svg width="762" height="103" viewBox="0 0 762 103" fill="none" xmlns="http://www.w3.org/2000/svg">
<path d="M98.7575 82.6667V19.1111C99.0804 10.1157 93.8584 2 84.6726 2H19.1469C9.34867 2 2 8.11111 2 19.1111V80.8333C2 91.8333 10.5735 101 22.2088 101H760" stroke="#46B9EA" stroke-width="4" stroke-linecap="round"/>
<rect x="18" y="17" width="64" height="68" rx="12" fill="#46B9EA"/>
<path d="M38.0156 65.36C34.7356 65.36 32.229 64.12 30.4956 61.64C28.789 59.1333 27.9356 55.5467 27.9356 50.88C27.9356 47.7067 28.3223 45.0533 29.0956 42.92C29.869 40.7867 31.0023 39.1733 32.4956 38.08C33.989 36.9867 35.829 36.44 38.0156 36.44C41.3223 36.44 43.829 37.6667 45.5356 40.12C47.2423 42.5467 48.0956 46.12 48.0956 50.84C48.0956 53.96 47.709 56.6 46.9356 58.76C46.1623 60.92 45.029 62.56 43.5356 63.68C42.0423 64.8 40.2023 65.36 38.0156 65.36ZM38.0156 61.92C40.069 61.92 41.5756 61.0267 42.5356 59.24C43.5223 57.4267 44.0156 54.6267 44.0156 50.84C44.0156 47.0267 43.5223 44.2533 42.5356 42.52C41.5756 40.76 40.069 39.88 38.0156 39.88C35.989 39.88 34.4823 40.76 33.4956 42.52C32.509 44.2533 32.0156 47.0267 32.0156 50.84C32.0156 54.6267 32.509 57.4267 33.4956 59.24C34.4823 61.0267 35.989 61.92 38.0156 61.92ZM56.2 65C55.64 65 55.2 64.84 54.88 64.52C54.56 64.2 54.4 63.7733 54.4 63.24C54.4 62.68 54.56 62.2533 54.88 61.96C55.2 61.6667 55.64 61.52 56.2 61.52H61.08V40.24H63.16L57.32 43.96C56.8933 44.2 56.4933 44.2933 56.12 44.24C55.7733 44.1867 55.4667 44.04 55.2 43.8C54.96 43.56 54.7867 43.2667 54.68 42.92C54.6 42.5733 54.6267 42.2133 54.76 41.84C54.92 41.4667 55.2 41.16 55.6 40.92L61.12 37.44C61.5733 37.1733 62 36.96 62.4 36.8C62.8267 36.6133 63.2267 36.52 63.6 36.52C64.0533 36.52 64.4267 36.6533 64.72 36.92C65.04 37.16 65.2 37.5733 65.2 38.16V61.52H69.68C70.2667 61.52 70.72 61.6667 71.04 61.96C71.36 62.2533 71.52 62.68 71.52 63.24C71.52 63.8 71.36 64.24 71.04 64.56C70.72 64.8533 70.2667 65 69.68 65H56.2Z" fill="white"/>
</svg>
